<svg width="304" height="160" viewBox="0 0 304 160" fill="none" xmlns="http://www.w3.org/2000/svg">
<g clip-path="url(#clip0_32_9858)">
<path d="M0.516 11.812C0.516 10.996 0.7 10.264 1.068 9.616C1.436 8.96 1.936 8.448 2.568 8.08C3.208 7.712 3.916 7.528 4.692 7.528C5.604 7.528 6.4 7.748 7.08 8.188C7.76 8.628 8.256 9.252 8.568 10.06H7.26C7.028 9.556 6.692 9.168 6.252 8.896C5.82 8.624 5.3 8.488 4.692 8.488C4.108 8.488 3.584 8.624 3.12 8.896C2.656 9.168 2.292 9.556 2.028 10.06C1.764 10.556 1.632 11.14 1.632 11.812C1.632 12.476 1.764 13.06 2.028 13.564C2.292 14.06 2.656 14.444 3.12 14.716C3.584 14.988 4.108 15.124 4.692 15.124C5.3 15.124 5.82 14.992 6.252 14.728C6.692 14.456 7.028 14.068 7.26 13.564H8.568C8.256 14.364 7.76 14.984 7.08 15.424C6.4 15.856 5.604 16.072 4.692 16.072C3.916 16.072 3.208 15.892 2.568 15.532C1.936 15.164 1.436 14.656 1.068 14.008C0.7 13.36 0.516 12.628 0.516 11.812ZM14.0615 16.108C13.4455 16.108 12.8855 15.968 12.3815 15.688C11.8855 15.408 11.4935 15.012 11.2055 14.5C10.9255 13.98 10.7855 13.38 10.7855 12.7C10.7855 12.028 10.9295 11.436 11.2175 10.924C11.5135 10.404 11.9135 10.008 12.4175 9.736C12.9215 9.456 13.4855 9.316 14.1095 9.316C14.7335 9.316 15.2975 9.456 15.8015 9.736C16.3055 10.008 16.7015 10.4 16.9895 10.912C17.2855 11.424 17.4335 12.02 17.4335 12.7C17.4335 13.38 17.2815 13.98 16.9775 14.5C16.6815 15.012 16.2775 15.408 15.7655 15.688C15.2535 15.968 14.6855 16.108 14.0615 16.108ZM14.0615 15.148C14.4535 15.148 14.8215 15.056 15.1655 14.872C15.5095 14.688 15.7855 14.412 15.9935 14.044C16.2095 13.676 16.3175 13.228 16.3175 12.7C16.3175 12.172 16.2135 11.724 16.0055 11.356C15.7975 10.988 15.5255 10.716 15.1895 10.54C14.8535 10.356 14.4895 10.264 14.0975 10.264C13.6975 10.264 13.3295 10.356 12.9935 10.54C12.6655 10.716 12.4015 10.988 12.2015 11.356C12.0015 11.724 11.9015 12.172 11.9015 12.7C11.9015 13.236 11.9975 13.688 12.1895 14.056C12.3895 14.424 12.6535 14.7 12.9815 14.884C13.3095 15.06 13.6695 15.148 14.0615 15.148ZM20.9613 7.12V16H19.8693V7.12H20.9613ZM29.8224 12.46C29.8224 12.668 29.8104 12.888 29.7864 13.12H24.5304C24.5704 13.768 24.7904 14.276 25.1904 14.644C25.5984 15.004 26.0904 15.184 26.6664 15.184C27.1384 15.184 27.5304 15.076 27.8424 14.86C28.1624 14.636 28.3864 14.34 28.5144 13.972H29.6904C29.5144 14.604 29.1624 15.12 28.6344 15.52C28.1064 15.912 27.4504 16.108 26.6664 16.108C26.0424 16.108 25.4824 15.968 24.9864 15.688C24.4984 15.408 24.1144 15.012 23.8344 14.5C23.5544 13.98 23.4144 13.38 23.4144 12.7C23.4144 12.02 23.5504 11.424 23.8224 10.912C24.0944 10.4 24.4744 10.008 24.9624 9.736C25.4584 9.456 26.0264 9.316 26.6664 9.316C27.2904 9.316 27.8424 9.452 28.3224 9.724C28.8024 9.996 29.1704 10.372 29.4264 10.852C29.6904 11.324 29.8224 11.86 29.8224 12.46ZM28.6944 12.232C28.6944 11.816 28.6024 11.46 28.4184 11.164C28.2344 10.86 27.9824 10.632 27.6624 10.48C27.3504 10.32 27.0024 10.24 26.6184 10.24C26.0664 10.24 25.5944 10.416 25.2024 10.768C24.8184 11.12 24.5984 11.608 24.5424 12.232H28.6944ZM34.9758 9.316C35.5438 9.316 36.0398 9.44 36.4638 9.688C36.8958 9.936 37.2158 10.248 37.4238 10.624V9.424H38.5278V16.144C38.5278 16.744 38.3998 17.276 38.1438 17.74C37.8878 18.212 37.5198 18.58 37.0398 18.844C36.5678 19.108 36.0158 19.24 35.3838 19.24C34.5198 19.24 33.7998 19.036 33.2238 18.628C32.6478 18.22 32.3078 17.664 32.2038 16.96H33.2838C33.4038 17.36 33.6518 17.68 34.0278 17.92C34.4038 18.168 34.8558 18.292 35.3838 18.292C35.9838 18.292 36.4718 18.104 36.8478 17.728C37.2318 17.352 37.4238 16.824 37.4238 16.144V14.764C37.2078 15.148 36.8878 15.468 36.4638 15.724C36.0398 15.98 35.5438 16.108 34.9758 16.108C34.3918 16.108 33.8598 15.964 33.3798 15.676C32.9078 15.388 32.5358 14.984 32.2638 14.464C31.9918 13.944 31.8558 13.352 31.8558 12.688C31.8558 12.016 31.9918 11.428 32.2638 10.924C32.5358 10.412 32.9078 10.016 33.3798 9.736C33.8598 9.456 34.3918 9.316 34.9758 9.316ZM37.4238 12.7C37.4238 12.204 37.3238 11.772 37.1238 11.404C36.9238 11.036 36.6518 10.756 36.3078 10.564C35.9718 10.364 35.5998 10.264 35.1918 10.264C34.7838 10.264 34.4118 10.36 34.0758 10.552C33.7398 10.744 33.4718 11.024 33.2718 11.392C33.0718 11.76 32.9718 12.192 32.9718 12.688C32.9718 13.192 33.0718 13.632 33.2718 14.008C33.4718 14.376 33.7398 14.66 34.0758 14.86C34.4118 15.052 34.7838 15.148 35.1918 15.148C35.5998 15.148 35.9718 15.052 36.3078 14.86C36.6518 14.66 36.9238 14.376 37.1238 14.008C37.3238 13.632 37.4238 13.196 37.4238 12.7ZM41.9372 8.356C41.7292 8.356 41.5532 8.284 41.4092 8.14C41.2652 7.996 41.1932 7.82 41.1932 7.612C41.1932 7.404 41.2652 7.228 41.4092 7.084C41.5532 6.94 41.7292 6.868 41.9372 6.868C42.1372 6.868 42.3052 6.94 42.4412 7.084C42.5852 7.228 42.6572 7.404 42.6572 7.612C42.6572 7.82 42.5852 7.996 42.4412 8.14C42.3052 8.284 42.1372 8.356 41.9372 8.356ZM42.4652 9.424V16H41.3732V9.424H42.4652ZM48.1943 16.108C47.5783 16.108 47.0183 15.968 46.5143 15.688C46.0183 15.408 45.6263 15.012 45.3383 14.5C45.0583 13.98 44.9183 13.38 44.9183 12.7C44.9183 12.028 45.0623 11.436 45.3503 10.924C45.6463 10.404 46.0463 10.008 46.5503 9.736C47.0543 9.456 47.6183 9.316 48.2423 9.316C48.8663 9.316 49.4303 9.456 49.9343 9.736C50.4383 10.008 50.8343 10.4 51.1223 10.912C51.4183 11.424 51.5663 12.02 51.5663 12.7C51.5663 13.38 51.4143 13.98 51.1103 14.5C50.8143 15.012 50.4103 15.408 49.8983 15.688C49.3863 15.968 48.8183 16.108 48.1943 16.108ZM48.1943 15.148C48.5863 15.148 48.9543 15.056 49.2983 14.872C49.6423 14.688 49.9183 14.412 50.1263 14.044C50.3423 13.676 50.4503 13.228 50.4503 12.7C50.4503 12.172 50.3463 11.724 50.1383 11.356C49.9303 10.988 49.6583 10.716 49.3223 10.54C48.9863 10.356 48.6223 10.264 48.2303 10.264C47.8303 10.264 47.4623 10.356 47.1263 10.54C46.7983 10.716 46.5343 10.988 46.3343 11.356C46.1343 11.724 46.0343 12.172 46.0343 12.7C46.0343 13.236 46.1303 13.688 46.3223 14.056C46.5223 14.424 46.7863 14.7 47.1143 14.884C47.4423 15.06 47.8023 15.148 48.1943 15.148Z" fill="#77838F"/>
<path d="M137.706 8.314C137.762 7.446 138.094 6.76933 138.7 6.284C139.316 5.79867 140.1 5.556 141.052 5.556C141.706 5.556 142.27 5.67267 142.746 5.906C143.222 6.13933 143.582 6.45667 143.824 6.858C144.067 7.25933 144.188 7.712 144.188 8.216C144.188 8.79467 144.034 9.28933 143.726 9.7C143.418 10.1107 143.05 10.386 142.62 10.526V10.582C143.171 10.75 143.6 11.058 143.908 11.506C144.216 11.9447 144.37 12.5093 144.37 13.2C144.37 13.7507 144.244 14.2407 143.992 14.67C143.74 15.0993 143.367 15.44 142.872 15.692C142.378 15.9347 141.785 16.056 141.094 16.056C140.086 16.056 139.256 15.7993 138.602 15.286C137.958 14.7633 137.613 14.0167 137.566 13.046H139.106C139.144 13.5407 139.335 13.9467 139.68 14.264C140.026 14.572 140.492 14.726 141.08 14.726C141.65 14.726 142.088 14.572 142.396 14.264C142.704 13.9467 142.858 13.5407 142.858 13.046C142.858 12.3927 142.648 11.9307 142.228 11.66C141.818 11.38 141.183 11.24 140.324 11.24H139.96V9.924H140.338C141.094 9.91467 141.668 9.78867 142.06 9.546C142.462 9.30333 142.662 8.92067 142.662 8.398C142.662 7.95 142.518 7.59533 142.228 7.334C141.939 7.06333 141.528 6.928 140.996 6.928C140.474 6.928 140.068 7.06333 139.778 7.334C139.489 7.59533 139.316 7.922 139.26 8.314H137.706ZM142.552 29.16C142.45 28.7307 142.263 28.4087 141.992 28.194C141.722 27.9793 141.344 27.872 140.858 27.872C140.121 27.872 139.57 28.1567 139.206 28.726C138.842 29.286 138.651 30.2193 138.632 31.526C138.875 31.1153 139.23 30.798 139.696 30.574C140.163 30.35 140.667 30.238 141.208 30.238C141.824 30.238 142.366 30.3733 142.832 30.644C143.308 30.9053 143.677 31.288 143.938 31.792C144.209 32.296 144.344 32.898 144.344 33.598C144.344 34.2513 144.214 34.8347 143.952 35.348C143.7 35.8613 143.322 36.2673 142.818 36.566C142.314 36.8553 141.708 37 140.998 37C140.037 37 139.281 36.79 138.73 36.37C138.189 35.9407 137.806 35.3387 137.582 34.564C137.368 33.7893 137.26 32.8233 137.26 31.666C137.26 28.25 138.464 26.542 140.872 26.542C141.806 26.542 142.538 26.794 143.07 27.298C143.612 27.802 143.929 28.4227 144.022 29.16H142.552ZM140.858 31.582C140.289 31.582 139.804 31.7547 139.402 32.1C139.01 32.436 138.814 32.926 138.814 33.57C138.814 34.214 138.996 34.7273 139.36 35.11C139.734 35.4833 140.252 35.67 140.914 35.67C141.502 35.67 141.964 35.488 142.3 35.124C142.646 34.76 142.818 34.2747 142.818 33.668C142.818 33.0333 142.65 32.5293 142.314 32.156C141.988 31.7733 141.502 31.582 140.858 31.582Z" fill="#2E2A2A"/>
</g>
<rect y="34.2857" width="145.207" height="6.85714" rx="3.42857" fill="#EEEEEE"/>
<rect y="34.2857" width="116.335" height="6.85714" rx="3.42857" fill="#FDE401"/>
<g clip-path="url(#clip1_32_9858)">
<path d="M162.82 7.25V5.794H165.732V16H164.122V7.25H162.82ZM165.018 34.228C165.111 34.6947 165.312 35.0493 165.62 35.292C165.928 35.5347 166.343 35.656 166.866 35.656C167.529 35.656 168.014 35.3947 168.322 34.872C168.63 34.3493 168.784 33.458 168.784 32.198C168.56 32.5153 168.243 32.7627 167.832 32.94C167.431 33.108 166.992 33.192 166.516 33.192C165.909 33.192 165.359 33.0707 164.864 32.828C164.369 32.576 163.977 32.2073 163.688 31.722C163.408 31.2273 163.268 30.63 163.268 29.93C163.268 28.9033 163.567 28.0867 164.164 27.48C164.771 26.864 165.601 26.556 166.656 26.556C167.925 26.556 168.826 26.9807 169.358 27.83C169.899 28.67 170.17 29.9627 170.17 31.708C170.17 32.912 170.067 33.8967 169.862 34.662C169.666 35.4273 169.321 36.006 168.826 36.398C168.331 36.79 167.645 36.986 166.768 36.986C165.769 36.986 164.999 36.7247 164.458 36.202C163.917 35.6793 163.613 35.0213 163.548 34.228H165.018ZM166.796 31.848C167.356 31.848 167.795 31.6753 168.112 31.33C168.439 30.9753 168.602 30.5087 168.602 29.93C168.602 29.286 168.429 28.7867 168.084 28.432C167.748 28.068 167.286 27.886 166.698 27.886C166.11 27.886 165.643 28.0727 165.298 28.446C164.962 28.81 164.794 29.2907 164.794 29.888C164.794 30.4573 164.957 30.9287 165.284 31.302C165.62 31.666 166.124 31.848 166.796 31.848Z" fill="#2E2A2A"/>
<path d="M250.829 11.812C250.829 10.996 251.013 10.264 251.381 9.616C251.749 8.96 252.249 8.448 252.881 8.08C253.521 7.712 254.229 7.528 255.005 7.528C255.917 7.528 256.713 7.748 257.393 8.188C258.073 8.628 258.569 9.252 258.881 10.06H257.573C257.341 9.556 257.005 9.168 256.565 8.896C256.133 8.624 255.613 8.488 255.005 8.488C254.421 8.488 253.897 8.624 253.433 8.896C252.969 9.168 252.605 9.556 252.341 10.06C252.077 10.556 251.945 11.14 251.945 11.812C251.945 12.476 252.077 13.06 252.341 13.564C252.605 14.06 252.969 14.444 253.433 14.716C253.897 14.988 254.421 15.124 255.005 15.124C255.613 15.124 256.133 14.992 256.565 14.728C257.005 14.456 257.341 14.068 257.573 13.564H258.881C258.569 14.364 258.073 14.984 257.393 15.424C256.713 15.856 255.917 16.072 255.005 16.072C254.229 16.072 253.521 15.892 252.881 15.532C252.249 15.164 251.749 14.656 251.381 14.008C251.013 13.36 250.829 12.628 250.829 11.812ZM264.374 16.108C263.758 16.108 263.198 15.968 262.694 15.688C262.198 15.408 261.806 15.012 261.518 14.5C261.238 13.98 261.098 13.38 261.098 12.7C261.098 12.028 261.242 11.436 261.53 10.924C261.826 10.404 262.226 10.008 262.73 9.736C263.234 9.456 263.798 9.316 264.422 9.316C265.046 9.316 265.61 9.456 266.114 9.736C266.618 10.008 267.014 10.4 267.302 10.912C267.598 11.424 267.746 12.02 267.746 12.7C267.746 13.38 267.594 13.98 267.29 14.5C266.994 15.012 266.59 15.408 266.078 15.688C265.566 15.968 264.998 16.108 264.374 16.108ZM264.374 15.148C264.766 15.148 265.134 15.056 265.478 14.872C265.822 14.688 266.098 14.412 266.306 14.044C266.522 13.676 266.63 13.228 266.63 12.7C266.63 12.172 266.526 11.724 266.318 11.356C266.11 10.988 265.838 10.716 265.502 10.54C265.166 10.356 264.802 10.264 264.41 10.264C264.01 10.264 263.642 10.356 263.306 10.54C262.978 10.716 262.714 10.988 262.514 11.356C262.314 11.724 262.214 12.172 262.214 12.7C262.214 13.236 262.31 13.688 262.502 14.056C262.702 14.424 262.966 14.7 263.294 14.884C263.622 15.06 263.982 15.148 264.374 15.148ZM271.274 7.12V16H270.182V7.12H271.274ZM280.135 12.46C280.135 12.668 280.123 12.888 280.099 13.12H274.843C274.883 13.768 275.103 14.276 275.503 14.644C275.911 15.004 276.403 15.184 276.979 15.184C277.451 15.184 277.843 15.076 278.155 14.86C278.475 14.636 278.699 14.34 278.827 13.972H280.003C279.827 14.604 279.475 15.12 278.947 15.52C278.419 15.912 277.763 16.108 276.979 16.108C276.355 16.108 275.795 15.968 275.299 15.688C274.811 15.408 274.427 15.012 274.147 14.5C273.867 13.98 273.727 13.38 273.727 12.7C273.727 12.02 273.863 11.424 274.135 10.912C274.407 10.4 274.787 10.008 275.275 9.736C275.771 9.456 276.339 9.316 276.979 9.316C277.603 9.316 278.155 9.452 278.635 9.724C279.115 9.996 279.483 10.372 279.739 10.852C280.003 11.324 280.135 11.86 280.135 12.46ZM279.007 12.232C279.007 11.816 278.915 11.46 278.731 11.164C278.547 10.86 278.295 10.632 277.975 10.48C277.663 10.32 277.315 10.24 276.931 10.24C276.379 10.24 275.907 10.416 275.515 10.768C275.131 11.12 274.911 11.608 274.855 12.232H279.007ZM285.289 9.316C285.857 9.316 286.353 9.44 286.777 9.688C287.209 9.936 287.529 10.248 287.737 10.624V9.424H288.841V16.144C288.841 16.744 288.713 17.276 288.457 17.74C288.201 18.212 287.833 18.58 287.353 18.844C286.881 19.108 286.329 19.24 285.697 19.24C284.833 19.24 284.113 19.036 283.537 18.628C282.961 18.22 282.621 17.664 282.517 16.96H283.597C283.717 17.36 283.965 17.68 284.341 17.92C284.717 18.168 285.169 18.292 285.697 18.292C286.297 18.292 286.785 18.104 287.161 17.728C287.545 17.352 287.737 16.824 287.737 16.144V14.764C287.521 15.148 287.201 15.468 286.777 15.724C286.353 15.98 285.857 16.108 285.289 16.108C284.705 16.108 284.173 15.964 283.693 15.676C283.221 15.388 282.849 14.984 282.577 14.464C282.305 13.944 282.169 13.352 282.169 12.688C282.169 12.016 282.305 11.428 282.577 10.924C282.849 10.412 283.221 10.016 283.693 9.736C284.173 9.456 284.705 9.316 285.289 9.316ZM287.737 12.7C287.737 12.204 287.637 11.772 287.437 11.404C287.237 11.036 286.965 10.756 286.621 10.564C286.285 10.364 285.913 10.264 285.505 10.264C285.097 10.264 284.725 10.36 284.389 10.552C284.053 10.744 283.785 11.024 283.585 11.392C283.385 11.76 283.285 12.192 283.285 12.688C283.285 13.192 283.385 13.632 283.585 14.008C283.785 14.376 284.053 14.66 284.389 14.86C284.725 15.052 285.097 15.148 285.505 15.148C285.913 15.148 286.285 15.052 286.621 14.86C286.965 14.66 287.237 14.376 287.437 14.008C287.637 13.632 287.737 13.196 287.737 12.7ZM292.25 8.356C292.042 8.356 291.866 8.284 291.722 8.14C291.578 7.996 291.506 7.82 291.506 7.612C291.506 7.404 291.578 7.228 291.722 7.084C291.866 6.94 292.042 6.868 292.25 6.868C292.45 6.868 292.618 6.94 292.754 7.084C292.898 7.228 292.97 7.404 292.97 7.612C292.97 7.82 292.898 7.996 292.754 8.14C292.618 8.284 292.45 8.356 292.25 8.356ZM292.778 9.424V16H291.686V9.424H292.778ZM298.507 16.108C297.891 16.108 297.331 15.968 296.827 15.688C296.331 15.408 295.939 15.012 295.651 14.5C295.371 13.98 295.231 13.38 295.231 12.7C295.231 12.028 295.375 11.436 295.663 10.924C295.959 10.404 296.359 10.008 296.863 9.736C297.367 9.456 297.931 9.316 298.555 9.316C299.179 9.316 299.743 9.456 300.247 9.736C300.751 10.008 301.147 10.4 301.435 10.912C301.731 11.424 301.879 12.02 301.879 12.7C301.879 13.38 301.727 13.98 301.423 14.5C301.127 15.012 300.723 15.408 300.211 15.688C299.699 15.968 299.131 16.108 298.507 16.108ZM298.507 15.148C298.899 15.148 299.267 15.056 299.611 14.872C299.955 14.688 300.231 14.412 300.439 14.044C300.655 13.676 300.763 13.228 300.763 12.7C300.763 12.172 300.659 11.724 300.451 11.356C300.243 10.988 299.971 10.716 299.635 10.54C299.299 10.356 298.935 10.264 298.543 10.264C298.143 10.264 297.775 10.356 297.439 10.54C297.111 10.716 296.847 10.988 296.647 11.356C296.447 11.724 296.347 12.172 296.347 12.7C296.347 13.236 296.443 13.688 296.635 14.056C296.835 14.424 297.099 14.7 297.427 14.884C297.755 15.06 298.115 15.148 298.507 15.148Z" fill="#77838F"/>
</g>
<rect x="158.793" y="34.2857" width="145.207" height="6.85714" rx="3.42857" fill="#EEEEEE"/>
<rect x="246.257" y="34.2857" width="57.743" height="6.85714" rx="3.42857" fill="#D44386"/>
<g clip-path="url(#clip2_32_9858)">
<path d="M0.516 70.812C0.516 69.996 0.7 69.264 1.068 68.616C1.436 67.96 1.936 67.448 2.568 67.08C3.208 66.712 3.916 66.528 4.692 66.528C5.604 66.528 6.4 66.748 7.08 67.188C7.76 67.628 8.256 68.252 8.568 69.06H7.26C7.028 68.556 6.692 68.168 6.252 67.896C5.82 67.624 5.3 67.488 4.692 67.488C4.108 67.488 3.584 67.624 3.12 67.896C2.656 68.168 2.292 68.556 2.028 69.06C1.764 69.556 1.632 70.14 1.632 70.812C1.632 71.476 1.764 72.06 2.028 72.564C2.292 73.06 2.656 73.444 3.12 73.716C3.584 73.988 4.108 74.124 4.692 74.124C5.3 74.124 5.82 73.992 6.252 73.728C6.692 73.456 7.028 73.068 7.26 72.564H8.568C8.256 73.364 7.76 73.984 7.08 74.424C6.4 74.856 5.604 75.072 4.692 75.072C3.916 75.072 3.208 74.892 2.568 74.532C1.936 74.164 1.436 73.656 1.068 73.008C0.7 72.36 0.516 71.628 0.516 70.812ZM14.0615 75.108C13.4455 75.108 12.8855 74.968 12.3815 74.688C11.8855 74.408 11.4935 74.012 11.2055 73.5C10.9255 72.98 10.7855 72.38 10.7855 71.7C10.7855 71.028 10.9295 70.436 11.2175 69.924C11.5135 69.404 11.9135 69.008 12.4175 68.736C12.9215 68.456 13.4855 68.316 14.1095 68.316C14.7335 68.316 15.2975 68.456 15.8015 68.736C16.3055 69.008 16.7015 69.4 16.9895 69.912C17.2855 70.424 17.4335 71.02 17.4335 71.7C17.4335 72.38 17.2815 72.98 16.9775 73.5C16.6815 74.012 16.2775 74.408 15.7655 74.688C15.2535 74.968 14.6855 75.108 14.0615 75.108ZM14.0615 74.148C14.4535 74.148 14.8215 74.056 15.1655 73.872C15.5095 73.688 15.7855 73.412 15.9935 73.044C16.2095 72.676 16.3175 72.228 16.3175 71.7C16.3175 71.172 16.2135 70.724 16.0055 70.356C15.7975 69.988 15.5255 69.716 15.1895 69.54C14.8535 69.356 14.4895 69.264 14.0975 69.264C13.6975 69.264 13.3295 69.356 12.9935 69.54C12.6655 69.716 12.4015 69.988 12.2015 70.356C12.0015 70.724 11.9015 71.172 11.9015 71.7C11.9015 72.236 11.9975 72.688 12.1895 73.056C12.3895 73.424 12.6535 73.7 12.9815 73.884C13.3095 74.06 13.6695 74.148 14.0615 74.148ZM20.9613 66.12V75H19.8693V66.12H20.9613ZM29.8224 71.46C29.8224 71.668 29.8104 71.888 29.7864 72.12H24.5304C24.5704 72.768 24.7904 73.276 25.1904 73.644C25.5984 74.004 26.0904 74.184 26.6664 74.184C27.1384 74.184 27.5304 74.076 27.8424 73.86C28.1624 73.636 28.3864 73.34 28.5144 72.972H29.6904C29.5144 73.604 29.1624 74.12 28.6344 74.52C28.1064 74.912 27.4504 75.108 26.6664 75.108C26.0424 75.108 25.4824 74.968 24.9864 74.688C24.4984 74.408 24.1144 74.012 23.8344 73.5C23.5544 72.98 23.4144 72.38 23.4144 71.7C23.4144 71.02 23.5504 70.424 23.8224 69.912C24.0944 69.4 24.4744 69.008 24.9624 68.736C25.4584 68.456 26.0264 68.316 26.6664 68.316C27.2904 68.316 27.8424 68.452 28.3224 68.724C28.8024 68.996 29.1704 69.372 29.4264 69.852C29.6904 70.324 29.8224 70.86 29.8224 71.46ZM28.6944 71.232C28.6944 70.816 28.6024 70.46 28.4184 70.164C28.2344 69.86 27.9824 69.632 27.6624 69.48C27.3504 69.32 27.0024 69.24 26.6184 69.24C26.0664 69.24 25.5944 69.416 25.2024 69.768C24.8184 70.12 24.5984 70.608 24.5424 71.232H28.6944ZM34.9758 68.316C35.5438 68.316 36.0398 68.44 36.4638 68.688C36.8958 68.936 37.2158 69.248 37.4238 69.624V68.424H38.5278V75.144C38.5278 75.744 38.3998 76.276 38.1438 76.74C37.8878 77.212 37.5198 77.58 37.0398 77.844C36.5678 78.108 36.0158 78.24 35.3838 78.24C34.5198 78.24 33.7998 78.036 33.2238 77.628C32.6478 77.22 32.3078 76.664 32.2038 75.96H33.2838C33.4038 76.36 33.6518 76.68 34.0278 76.92C34.4038 77.168 34.8558 77.292 35.3838 77.292C35.9838 77.292 36.4718 77.104 36.8478 76.728C37.2318 76.352 37.4238 75.824 37.4238 75.144V73.764C37.2078 74.148 36.8878 74.468 36.4638 74.724C36.0398 74.98 35.5438 75.108 34.9758 75.108C34.3918 75.108 33.8598 74.964 33.3798 74.676C32.9078 74.388 32.5358 73.984 32.2638 73.464C31.9918 72.944 31.8558 72.352 31.8558 71.688C31.8558 71.016 31.9918 70.428 32.2638 69.924C32.5358 69.412 32.9078 69.016 33.3798 68.736C33.8598 68.456 34.3918 68.316 34.9758 68.316ZM37.4238 71.7C37.4238 71.204 37.3238 70.772 37.1238 70.404C36.9238 70.036 36.6518 69.756 36.3078 69.564C35.9718 69.364 35.5998 69.264 35.1918 69.264C34.7838 69.264 34.4118 69.36 34.0758 69.552C33.7398 69.744 33.4718 70.024 33.2718 70.392C33.0718 70.76 32.9718 71.192 32.9718 71.688C32.9718 72.192 33.0718 72.632 33.2718 73.008C33.4718 73.376 33.7398 73.66 34.0758 73.86C34.4118 74.052 34.7838 74.148 35.1918 74.148C35.5998 74.148 35.9718 74.052 36.3078 73.86C36.6518 73.66 36.9238 73.376 37.1238 73.008C37.3238 72.632 37.4238 72.196 37.4238 71.7ZM41.9372 67.356C41.7292 67.356 41.5532 67.284 41.4092 67.14C41.2652 66.996 41.1932 66.82 41.1932 66.612C41.1932 66.404 41.2652 66.228 41.4092 66.084C41.5532 65.94 41.7292 65.868 41.9372 65.868C42.1372 65.868 42.3052 65.94 42.4412 66.084C42.5852 66.228 42.6572 66.404 42.6572 66.612C42.6572 66.82 42.5852 66.996 42.4412 67.14C42.3052 67.284 42.1372 67.356 41.9372 67.356ZM42.4652 68.424V75H41.3732V68.424H42.4652ZM48.1943 75.108C47.5783 75.108 47.0183 74.968 46.5143 74.688C46.0183 74.408 45.6263 74.012 45.3383 73.5C45.0583 72.98 44.9183 72.38 44.9183 71.7C44.9183 71.028 45.0623 70.436 45.3503 69.924C45.6463 69.404 46.0463 69.008 46.5503 68.736C47.0543 68.456 47.6183 68.316 48.2423 68.316C48.8663 68.316 49.4303 68.456 49.9343 68.736C50.4383 69.008 50.8343 69.4 51.1223 69.912C51.4183 70.424 51.5663 71.02 51.5663 71.7C51.5663 72.38 51.4143 72.98 51.1103 73.5C50.8143 74.012 50.4103 74.408 49.8983 74.688C49.3863 74.968 48.8183 75.108 48.1943 75.108ZM48.1943 74.148C48.5863 74.148 48.9543 74.056 49.2983 73.872C49.6423 73.688 49.9183 73.412 50.1263 73.044C50.3423 72.676 50.4503 72.228 50.4503 71.7C50.4503 71.172 50.3463 70.724 50.1383 70.356C49.9303 69.988 49.6583 69.716 49.3223 69.54C48.9863 69.356 48.6223 69.264 48.2303 69.264C47.8303 69.264 47.4623 69.356 47.1263 69.54C46.7983 69.716 46.5343 69.988 46.3343 70.356C46.1343 70.724 46.0343 71.172 46.0343 71.7C46.0343 72.236 46.1303 72.688 46.3223 73.056C46.5223 73.424 46.7863 73.7 47.1143 73.884C47.4423 74.06 47.8023 74.148 48.1943 74.148Z" fill="#77838F"/>
<path d="M138.849 73.2586C139.745 72.4839 140.449 71.8493 140.963 71.3546C141.485 70.8506 141.919 70.3279 142.265 69.7866C142.61 69.2453 142.783 68.7039 142.783 68.1626C142.783 67.6026 142.647 67.1639 142.377 66.8466C142.115 66.5293 141.7 66.3706 141.131 66.3706C140.58 66.3706 140.151 66.5479 139.843 66.9026C139.544 67.2479 139.385 67.7146 139.367 68.3026H137.827C137.855 67.2386 138.172 66.4266 138.779 65.8666C139.395 65.2973 140.174 65.0126 141.117 65.0126C142.134 65.0126 142.927 65.2926 143.497 65.8526C144.075 66.4126 144.365 67.1593 144.365 68.0926C144.365 68.7646 144.192 69.4133 143.847 70.0386C143.511 70.6546 143.105 71.2099 142.629 71.7046C142.162 72.1899 141.565 72.7546 140.837 73.3986L140.207 73.9586H144.645V75.2886H137.841V74.1266L138.849 73.2586ZM136.786 94.3006V93.0966L141.49 86.3486H143.422V92.9146H144.724V94.3006H143.422V96.4286H141.854V94.3006H136.786ZM141.924 87.9726L138.62 92.9146H141.924V87.9726Z" fill="#2E2A2A"/>
</g>
<rect y="93.7144" width="145.207" height="6.85714" rx="3.42857" fill="#EEEEEE"/>
<rect y="93.7144" width="92.5587" height="6.85714" rx="3.42857" fill="#FDE401"/>
<g clip-path="url(#clip3_32_9858)">
<path d="M163.002 67.7426C163.058 66.8746 163.389 66.1979 163.996 65.7126C164.612 65.2273 165.396 64.9846 166.348 64.9846C167.001 64.9846 167.566 65.1013 168.042 65.3346C168.518 65.5679 168.877 65.8853 169.12 66.2866C169.363 66.6879 169.484 67.1406 169.484 67.6446C169.484 68.2233 169.33 68.7179 169.022 69.1286C168.714 69.5393 168.345 69.8146 167.916 69.9546V70.0106C168.467 70.1786 168.896 70.4866 169.204 70.9346C169.512 71.3733 169.666 71.9379 169.666 72.6286C169.666 73.1793 169.54 73.6693 169.288 74.0986C169.036 74.5279 168.663 74.8686 168.168 75.1206C167.673 75.3633 167.081 75.4846 166.39 75.4846C165.382 75.4846 164.551 75.2279 163.898 74.7146C163.254 74.1919 162.909 73.4453 162.862 72.4746H164.402C164.439 72.9693 164.631 73.3753 164.976 73.6926C165.321 74.0006 165.788 74.1546 166.376 74.1546C166.945 74.1546 167.384 74.0006 167.692 73.6926C168 73.3753 168.154 72.9693 168.154 72.4746C168.154 71.8213 167.944 71.3593 167.524 71.0886C167.113 70.8086 166.479 70.6686 165.62 70.6686H165.256V69.3526H165.634C166.39 69.3433 166.964 69.2173 167.356 68.9746C167.757 68.7319 167.958 68.3493 167.958 67.8266C167.958 67.3786 167.813 67.0239 167.524 66.7626C167.235 66.4919 166.824 66.3566 166.292 66.3566C165.769 66.3566 165.363 66.4919 165.074 66.7626C164.785 67.0239 164.612 67.3506 164.556 67.7426H163.002ZM163.912 94.2586C164.808 93.4839 165.513 92.8493 166.026 92.3546C166.549 91.8506 166.983 91.3279 167.328 90.7866C167.673 90.2453 167.846 89.7039 167.846 89.1626C167.846 88.6026 167.711 88.1639 167.44 87.8466C167.179 87.5293 166.763 87.3706 166.194 87.3706C165.643 87.3706 165.214 87.5479 164.906 87.9026C164.607 88.2479 164.449 88.7146 164.43 89.3026H162.89C162.918 88.2386 163.235 87.4266 163.842 86.8666C164.458 86.2973 165.237 86.0126 166.18 86.0126C167.197 86.0126 167.991 86.2926 168.56 86.8526C169.139 87.4126 169.428 88.1593 169.428 89.0926C169.428 89.7646 169.255 90.4133 168.91 91.0386C168.574 91.6546 168.168 92.2099 167.692 92.7046C167.225 93.1899 166.628 93.7546 165.9 94.3986L165.27 94.9586H169.708V96.2886H162.904V95.1266L163.912 94.2586Z" fill="#2E2A2A"/>
<path d="M251.226 71.2406C251.226 70.4246 251.41 69.6926 251.778 69.0446C252.146 68.3886 252.646 67.8766 253.278 67.5086C253.918 67.1406 254.626 66.9566 255.402 66.9566C256.314 66.9566 257.11 67.1766 257.79 67.6166C258.47 68.0566 258.966 68.6806 259.278 69.4886H257.97C257.738 68.9846 257.402 68.5966 256.962 68.3246C256.53 68.0526 256.01 67.9166 255.402 67.9166C254.818 67.9166 254.294 68.0526 253.83 68.3246C253.366 68.5966 253.002 68.9846 252.738 69.4886C252.474 69.9846 252.342 70.5686 252.342 71.2406C252.342 71.9046 252.474 72.4886 252.738 72.9926C253.002 73.4886 253.366 73.8726 253.83 74.1446C254.294 74.4166 254.818 74.5526 255.402 74.5526C256.01 74.5526 256.53 74.4206 256.962 74.1566C257.402 73.8846 257.738 73.4966 257.97 72.9926H259.278C258.966 73.7926 258.47 74.4126 257.79 74.8526C257.11 75.2846 256.314 75.5006 255.402 75.5006C254.626 75.5006 253.918 75.3206 253.278 74.9606C252.646 74.5926 252.146 74.0846 251.778 73.4366C251.41 72.7886 251.226 72.0566 251.226 71.2406ZM264.771 75.5366C264.155 75.5366 263.595 75.3966 263.091 75.1166C262.595 74.8366 262.203 74.4406 261.915 73.9286C261.635 73.4086 261.495 72.8086 261.495 72.1286C261.495 71.4566 261.639 70.8646 261.927 70.3526C262.223 69.8326 262.623 69.4366 263.127 69.1646C263.631 68.8846 264.195 68.7446 264.819 68.7446C265.443 68.7446 266.007 68.8846 266.511 69.1646C267.015 69.4366 267.411 69.8286 267.699 70.3406C267.995 70.8526 268.143 71.4486 268.143 72.1286C268.143 72.8086 267.991 73.4086 267.687 73.9286C267.391 74.4406 266.987 74.8366 266.475 75.1166C265.963 75.3966 265.395 75.5366 264.771 75.5366ZM264.771 74.5766C265.163 74.5766 265.531 74.4846 265.875 74.3006C266.219 74.1166 266.495 73.8406 266.703 73.4726C266.919 73.1046 267.027 72.6566 267.027 72.1286C267.027 71.6006 266.923 71.1526 266.715 70.7846C266.507 70.4166 266.235 70.1446 265.899 69.9686C265.563 69.7846 265.199 69.6926 264.807 69.6926C264.407 69.6926 264.039 69.7846 263.703 69.9686C263.375 70.1446 263.111 70.4166 262.911 70.7846C262.711 71.1526 262.611 71.6006 262.611 72.1286C262.611 72.6646 262.707 73.1166 262.899 73.4846C263.099 73.8526 263.363 74.1286 263.691 74.3126C264.019 74.4886 264.379 74.5766 264.771 74.5766ZM271.671 66.5486V75.4286H270.579V66.5486H271.671ZM280.532 71.8886C280.532 72.0966 280.52 72.3166 280.496 72.5486H275.24C275.28 73.1966 275.5 73.7046 275.9 74.0726C276.308 74.4326 276.8 74.6126 277.376 74.6126C277.848 74.6126 278.24 74.5046 278.552 74.2886C278.872 74.0646 279.096 73.7686 279.224 73.4006H280.4C280.224 74.0326 279.872 74.5486 279.344 74.9486C278.816 75.3406 278.16 75.5366 277.376 75.5366C276.752 75.5366 276.192 75.3966 275.696 75.1166C275.208 74.8366 274.824 74.4406 274.544 73.9286C274.264 73.4086 274.124 72.8086 274.124 72.1286C274.124 71.4486 274.26 70.8526 274.532 70.3406C274.804 69.8286 275.184 69.4366 275.672 69.1646C276.168 68.8846 276.736 68.7446 277.376 68.7446C278 68.7446 278.552 68.8806 279.032 69.1526C279.512 69.4246 279.88 69.8006 280.136 70.2806C280.4 70.7526 280.532 71.2886 280.532 71.8886ZM279.404 71.6606C279.404 71.2446 279.312 70.8886 279.128 70.5926C278.944 70.2886 278.692 70.0606 278.372 69.9086C278.06 69.7486 277.712 69.6686 277.328 69.6686C276.776 69.6686 276.304 69.8446 275.912 70.1966C275.528 70.5486 275.308 71.0366 275.252 71.6606H279.404ZM285.685 68.7446C286.253 68.7446 286.749 68.8686 287.173 69.1166C287.605 69.3646 287.925 69.6766 288.133 70.0526V68.8526H289.237V75.5726C289.237 76.1726 289.109 76.7046 288.853 77.1686C288.597 77.6406 288.229 78.0086 287.749 78.2726C287.277 78.5366 286.725 78.6686 286.093 78.6686C285.229 78.6686 284.509 78.4646 283.933 78.0566C283.357 77.6486 283.017 77.0926 282.913 76.3886H283.993C284.113 76.7886 284.361 77.1086 284.737 77.3486C285.113 77.5966 285.565 77.7206 286.093 77.7206C286.693 77.7206 287.181 77.5326 287.557 77.1566C287.941 76.7806 288.133 76.2526 288.133 75.5726V74.1926C287.917 74.5766 287.597 74.8966 287.173 75.1526C286.749 75.4086 286.253 75.5366 285.685 75.5366C285.101 75.5366 284.569 75.3926 284.089 75.1046C283.617 74.8166 283.245 74.4126 282.973 73.8926C282.701 73.3726 282.565 72.7806 282.565 72.1166C282.565 71.4446 282.701 70.8566 282.973 70.3526C283.245 69.8406 283.617 69.4446 284.089 69.1646C284.569 68.8846 285.101 68.7446 285.685 68.7446ZM288.133 72.1286C288.133 71.6326 288.033 71.2006 287.833 70.8326C287.633 70.4646 287.361 70.1846 287.017 69.9926C286.681 69.7926 286.309 69.6926 285.901 69.6926C285.493 69.6926 285.121 69.7886 284.785 69.9806C284.449 70.1726 284.181 70.4526 283.981 70.8206C283.781 71.1886 283.681 71.6206 283.681 72.1166C283.681 72.6206 283.781 73.0606 283.981 73.4366C284.181 73.8046 284.449 74.0886 284.785 74.2886C285.121 74.4806 285.493 74.5766 285.901 74.5766C286.309 74.5766 286.681 74.4806 287.017 74.2886C287.361 74.0886 287.633 73.8046 287.833 73.4366C288.033 73.0606 288.133 72.6246 288.133 72.1286ZM292.647 67.7846C292.439 67.7846 292.263 67.7126 292.119 67.5686C291.975 67.4246 291.903 67.2486 291.903 67.0406C291.903 66.8326 291.975 66.6566 292.119 66.5126C292.263 66.3686 292.439 66.2966 292.647 66.2966C292.847 66.2966 293.015 66.3686 293.151 66.5126C293.295 66.6566 293.367 66.8326 293.367 67.0406C293.367 67.2486 293.295 67.4246 293.151 67.5686C293.015 67.7126 292.847 67.7846 292.647 67.7846ZM293.175 68.8526V75.4286H292.083V68.8526H293.175ZM298.904 75.5366C298.288 75.5366 297.728 75.3966 297.224 75.1166C296.728 74.8366 296.336 74.4406 296.048 73.9286C295.768 73.4086 295.628 72.8086 295.628 72.1286C295.628 71.4566 295.772 70.8646 296.06 70.3526C296.356 69.8326 296.756 69.4366 297.26 69.1646C297.764 68.8846 298.328 68.7446 298.952 68.7446C299.576 68.7446 300.14 68.8846 300.644 69.1646C301.148 69.4366 301.544 69.8286 301.832 70.3406C302.128 70.8526 302.276 71.4486 302.276 72.1286C302.276 72.8086 302.124 73.4086 301.82 73.9286C301.524 74.4406 301.12 74.8366 300.608 75.1166C300.096 75.3966 299.528 75.5366 298.904 75.5366ZM298.904 74.5766C299.296 74.5766 299.664 74.4846 300.008 74.3006C300.352 74.1166 300.628 73.8406 300.836 73.4726C301.052 73.1046 301.16 72.6566 301.16 72.1286C301.16 71.6006 301.056 71.1526 300.848 70.7846C300.64 70.4166 300.368 70.1446 300.032 69.9686C299.696 69.7846 299.332 69.6926 298.94 69.6926C298.54 69.6926 298.172 69.7846 297.836 69.9686C297.508 70.1446 297.244 70.4166 297.044 70.7846C296.844 71.1526 296.744 71.6006 296.744 72.1286C296.744 72.6646 296.84 73.1166 297.032 73.4846C297.232 73.8526 297.496 74.1286 297.824 74.3126C298.152 74.4886 298.512 74.5766 298.904 74.5766Z" fill="#77838F"/>
</g>
<rect x="158.793" y="93.7144" width="145.207" height="6.85714" rx="3.42857" fill="#EEEEEE"/>
<rect x="200.402" y="93.7144" width="103.598" height="6.85714" rx="3.42857" fill="#D44386"/>
<g clip-path="url(#clip4_32_9858)">
<path d="M0.516 130.669C0.516 129.853 0.7 129.121 1.068 128.473C1.436 127.817 1.936 127.305 2.568 126.937C3.208 126.569 3.916 126.385 4.692 126.385C5.604 126.385 6.4 126.605 7.08 127.045C7.76 127.485 8.256 128.109 8.568 128.917H7.26C7.028 128.413 6.692 128.025 6.252 127.753C5.82 127.481 5.3 127.345 4.692 127.345C4.108 127.345 3.584 127.481 3.12 127.753C2.656 128.025 2.292 128.413 2.028 128.917C1.764 129.413 1.632 129.997 1.632 130.669C1.632 131.333 1.764 131.917 2.028 132.421C2.292 132.917 2.656 133.301 3.12 133.573C3.584 133.845 4.108 133.981 4.692 133.981C5.3 133.981 5.82 133.849 6.252 133.585C6.692 133.313 7.028 132.925 7.26 132.421H8.568C8.256 133.221 7.76 133.841 7.08 134.281C6.4 134.713 5.604 134.929 4.692 134.929C3.916 134.929 3.208 134.749 2.568 134.389C1.936 134.021 1.436 133.513 1.068 132.865C0.7 132.217 0.516 131.485 0.516 130.669ZM14.0615 134.965C13.4455 134.965 12.8855 134.825 12.3815 134.545C11.8855 134.265 11.4935 133.869 11.2055 133.357C10.9255 132.837 10.7855 132.237 10.7855 131.557C10.7855 130.885 10.9295 130.293 11.2175 129.781C11.5135 129.261 11.9135 128.865 12.4175 128.593C12.9215 128.313 13.4855 128.173 14.1095 128.173C14.7335 128.173 15.2975 128.313 15.8015 128.593C16.3055 128.865 16.7015 129.257 16.9895 129.769C17.2855 130.281 17.4335 130.877 17.4335 131.557C17.4335 132.237 17.2815 132.837 16.9775 133.357C16.6815 133.869 16.2775 134.265 15.7655 134.545C15.2535 134.825 14.6855 134.965 14.0615 134.965ZM14.0615 134.005C14.4535 134.005 14.8215 133.913 15.1655 133.729C15.5095 133.545 15.7855 133.269 15.9935 132.901C16.2095 132.533 16.3175 132.085 16.3175 131.557C16.3175 131.029 16.2135 130.581 16.0055 130.213C15.7975 129.845 15.5255 129.573 15.1895 129.397C14.8535 129.213 14.4895 129.121 14.0975 129.121C13.6975 129.121 13.3295 129.213 12.9935 129.397C12.6655 129.573 12.4015 129.845 12.2015 130.213C12.0015 130.581 11.9015 131.029 11.9015 131.557C11.9015 132.093 11.9975 132.545 12.1895 132.913C12.3895 133.281 12.6535 133.557 12.9815 133.741C13.3095 133.917 13.6695 134.005 14.0615 134.005ZM20.9613 125.977V134.857H19.8693V125.977H20.9613ZM29.8224 131.317C29.8224 131.525 29.8104 131.745 29.7864 131.977H24.5304C24.5704 132.625 24.7904 133.133 25.1904 133.501C25.5984 133.861 26.0904 134.041 26.6664 134.041C27.1384 134.041 27.5304 133.933 27.8424 133.717C28.1624 133.493 28.3864 133.197 28.5144 132.829H29.6904C29.5144 133.461 29.1624 133.977 28.6344 134.377C28.1064 134.769 27.4504 134.965 26.6664 134.965C26.0424 134.965 25.4824 134.825 24.9864 134.545C24.4984 134.265 24.1144 133.869 23.8344 133.357C23.5544 132.837 23.4144 132.237 23.4144 131.557C23.4144 130.877 23.5504 130.281 23.8224 129.769C24.0944 129.257 24.4744 128.865 24.9624 128.593C25.4584 128.313 26.0264 128.173 26.6664 128.173C27.2904 128.173 27.8424 128.309 28.3224 128.581C28.8024 128.853 29.1704 129.229 29.4264 129.709C29.6904 130.181 29.8224 130.717 29.8224 131.317ZM28.6944 131.089C28.6944 130.673 28.6024 130.317 28.4184 130.021C28.2344 129.717 27.9824 129.489 27.6624 129.337C27.3504 129.177 27.0024 129.097 26.6184 129.097C26.0664 129.097 25.5944 129.273 25.2024 129.625C24.8184 129.977 24.5984 130.465 24.5424 131.089H28.6944ZM34.9758 128.173C35.5438 128.173 36.0398 128.297 36.4638 128.545C36.8958 128.793 37.2158 129.105 37.4238 129.481V128.281H38.5278V135.001C38.5278 135.601 38.3998 136.133 38.1438 136.597C37.8878 137.069 37.5198 137.437 37.0398 137.701C36.5678 137.965 36.0158 138.097 35.3838 138.097C34.5198 138.097 33.7998 137.893 33.2238 137.485C32.6478 137.077 32.3078 136.521 32.2038 135.817H33.2838C33.4038 136.217 33.6518 136.537 34.0278 136.777C34.4038 137.025 34.8558 137.149 35.3838 137.149C35.9838 137.149 36.4718 136.961 36.8478 136.585C37.2318 136.209 37.4238 135.681 37.4238 135.001V133.621C37.2078 134.005 36.8878 134.325 36.4638 134.581C36.0398 134.837 35.5438 134.965 34.9758 134.965C34.3918 134.965 33.8598 134.821 33.3798 134.533C32.9078 134.245 32.5358 133.841 32.2638 133.321C31.9918 132.801 31.8558 132.209 31.8558 131.545C31.8558 130.873 31.9918 130.285 32.2638 129.781C32.5358 129.269 32.9078 128.873 33.3798 128.593C33.8598 128.313 34.3918 128.173 34.9758 128.173ZM37.4238 131.557C37.4238 131.061 37.3238 130.629 37.1238 130.261C36.9238 129.893 36.6518 129.613 36.3078 129.421C35.9718 129.221 35.5998 129.121 35.1918 129.121C34.7838 129.121 34.4118 129.217 34.0758 129.409C33.7398 129.601 33.4718 129.881 33.2718 130.249C33.0718 130.617 32.9718 131.049 32.9718 131.545C32.9718 132.049 33.0718 132.489 33.2718 132.865C33.4718 133.233 33.7398 133.517 34.0758 133.717C34.4118 133.909 34.7838 134.005 35.1918 134.005C35.5998 134.005 35.9718 133.909 36.3078 133.717C36.6518 133.517 36.9238 133.233 37.1238 132.865C37.3238 132.489 37.4238 132.053 37.4238 131.557ZM41.9372 127.213C41.7292 127.213 41.5532 127.141 41.4092 126.997C41.2652 126.853 41.1932 126.677 41.1932 126.469C41.1932 126.261 41.2652 126.085 41.4092 125.941C41.5532 125.797 41.7292 125.725 41.9372 125.725C42.1372 125.725 42.3052 125.797 42.4412 125.941C42.5852 126.085 42.6572 126.261 42.6572 126.469C42.6572 126.677 42.5852 126.853 42.4412 126.997C42.3052 127.141 42.1372 127.213 41.9372 127.213ZM42.4652 128.281V134.857H41.3732V128.281H42.4652ZM48.1943 134.965C47.5783 134.965 47.0183 134.825 46.5143 134.545C46.0183 134.265 45.6263 133.869 45.3383 133.357C45.0583 132.837 44.9183 132.237 44.9183 131.557C44.9183 130.885 45.0623 130.293 45.3503 129.781C45.6463 129.261 46.0463 128.865 46.5503 128.593C47.0543 128.313 47.6183 128.173 48.2423 128.173C48.8663 128.173 49.4303 128.313 49.9343 128.593C50.4383 128.865 50.8343 129.257 51.1223 129.769C51.4183 130.281 51.5663 130.877 51.5663 131.557C51.5663 132.237 51.4143 132.837 51.1103 133.357C50.8143 133.869 50.4103 134.265 49.8983 134.545C49.3863 134.825 48.8183 134.965 48.1943 134.965ZM48.1943 134.005C48.5863 134.005 48.9543 133.913 49.2983 133.729C49.6423 133.545 49.9183 133.269 50.1263 132.901C50.3423 132.533 50.4503 132.085 50.4503 131.557C50.4503 131.029 50.3463 130.581 50.1383 130.213C49.9303 129.845 49.6583 129.573 49.3223 129.397C48.9863 129.213 48.6223 129.121 48.2303 129.121C47.8303 129.121 47.4623 129.213 47.1263 129.397C46.7983 129.573 46.5343 129.845 46.3343 130.213C46.1343 130.581 46.0343 131.029 46.0343 131.557C46.0343 132.093 46.1303 132.545 46.3223 132.913C46.5223 133.281 46.7863 133.557 47.1143 133.741C47.4423 133.917 47.8023 134.005 48.1943 134.005Z" fill="#77838F"/>
<path d="M131.812 127.171C131.868 126.303 132.199 125.626 132.806 125.141C133.422 124.656 134.206 124.413 135.158 124.413C135.811 124.413 136.376 124.53 136.852 124.763C137.328 124.996 137.687 125.314 137.93 125.715C138.172 126.116 138.294 126.569 138.294 127.073C138.294 127.652 138.14 128.146 137.832 128.557C137.524 128.968 137.155 129.243 136.726 129.383V129.439C137.276 129.607 137.706 129.915 138.014 130.363C138.322 130.802 138.476 131.366 138.476 132.057C138.476 132.608 138.35 133.098 138.098 133.527C137.846 133.956 137.472 134.297 136.978 134.549C136.483 134.792 135.89 134.913 135.2 134.913C134.192 134.913 133.361 134.656 132.708 134.143C132.064 133.62 131.718 132.874 131.672 131.903H133.212C133.249 132.398 133.44 132.804 133.786 133.121C134.131 133.429 134.598 133.583 135.186 133.583C135.755 133.583 136.194 133.429 136.502 133.121C136.81 132.804 136.964 132.398 136.964 131.903C136.964 131.25 136.754 130.788 136.334 130.517C135.923 130.237 135.288 130.097 134.43 130.097H134.066V128.781H134.444C135.2 128.772 135.774 128.646 136.166 128.403C136.567 128.16 136.768 127.778 136.768 127.255C136.768 126.807 136.623 126.452 136.334 126.191C136.044 125.92 135.634 125.785 135.102 125.785C134.579 125.785 134.173 125.92 133.884 126.191C133.594 126.452 133.422 126.779 133.366 127.171H131.812ZM140.942 126.107V124.651H143.854V134.857H142.244V126.107H140.942ZM137.078 150.621C137.078 149.006 137.349 147.746 137.89 146.841C138.441 145.926 139.383 145.469 140.718 145.469C142.053 145.469 142.991 145.926 143.532 146.841C144.083 147.746 144.358 149.006 144.358 150.621C144.358 152.254 144.083 153.533 143.532 154.457C142.991 155.372 142.053 155.829 140.718 155.829C139.383 155.829 138.441 155.372 137.89 154.457C137.349 153.533 137.078 152.254 137.078 150.621ZM142.79 150.621C142.79 149.865 142.739 149.226 142.636 148.703C142.543 148.18 142.347 147.756 142.048 147.429C141.749 147.093 141.306 146.925 140.718 146.925C140.13 146.925 139.687 147.093 139.388 147.429C139.089 147.756 138.889 148.18 138.786 148.703C138.693 149.226 138.646 149.865 138.646 150.621C138.646 151.405 138.693 152.063 138.786 152.595C138.879 153.127 139.075 153.556 139.374 153.883C139.682 154.21 140.13 154.373 140.718 154.373C141.306 154.373 141.749 154.21 142.048 153.883C142.356 153.556 142.557 153.127 142.65 152.595C142.743 152.063 142.79 151.405 142.79 150.621Z" fill="#2E2A2A"/>
</g>
<rect y="153.143" width="145.207" height="6.85714" rx="3.42857" fill="#EEEEEE"/>
<rect y="153.143" width="101.899" height="6.85714" rx="3.42857" fill="#FDE401"/>
<g clip-path="url(#clip5_32_9858)">
<path d="M163.912 132.687C164.808 131.912 165.513 131.278 166.026 130.783C166.549 130.279 166.983 129.756 167.328 129.215C167.673 128.674 167.846 128.132 167.846 127.591C167.846 127.031 167.711 126.592 167.44 126.275C167.179 125.958 166.763 125.799 166.194 125.799C165.643 125.799 165.214 125.976 164.906 126.331C164.607 126.676 164.449 127.143 164.43 127.731H162.89C162.918 126.667 163.235 125.855 163.842 125.295C164.458 124.726 165.237 124.441 166.18 124.441C167.197 124.441 167.991 124.721 168.56 125.281C169.139 125.841 169.428 126.588 169.428 127.521C169.428 128.193 169.255 128.842 168.91 129.467C168.574 130.083 168.168 130.638 167.692 131.133C167.225 131.618 166.628 132.183 165.9 132.827L165.27 133.387H169.708V134.717H162.904V133.555L163.912 132.687ZM178.578 125.883L174.686 134.857H173.076L177.01 126.051H171.83V124.693H178.578V125.883ZM163.03 150.621C163.03 149.006 163.301 147.746 163.842 146.841C164.393 145.926 165.335 145.469 166.67 145.469C168.005 145.469 168.943 145.926 169.484 146.841C170.035 147.746 170.31 149.006 170.31 150.621C170.31 152.254 170.035 153.533 169.484 154.457C168.943 155.372 168.005 155.829 166.67 155.829C165.335 155.829 164.393 155.372 163.842 154.457C163.301 153.533 163.03 152.254 163.03 150.621ZM168.742 150.621C168.742 149.865 168.691 149.226 168.588 148.703C168.495 148.18 168.299 147.756 168 147.429C167.701 147.093 167.258 146.925 166.67 146.925C166.082 146.925 165.639 147.093 165.34 147.429C165.041 147.756 164.841 148.18 164.738 148.703C164.645 149.226 164.598 149.865 164.598 150.621C164.598 151.405 164.645 152.063 164.738 152.595C164.831 153.127 165.027 153.556 165.326 153.883C165.634 154.21 166.082 154.373 166.67 154.373C167.258 154.373 167.701 154.21 168 153.883C168.308 153.556 168.509 153.127 168.602 152.595C168.695 152.063 168.742 151.405 168.742 150.621Z" fill="#2E2A2A"/>
<path d="M251.226 130.669C251.226 129.853 251.41 129.121 251.778 128.473C252.146 127.817 252.646 127.305 253.278 126.937C253.918 126.569 254.626 126.385 255.402 126.385C256.314 126.385 257.11 126.605 257.79 127.045C258.47 127.485 258.966 128.109 259.278 128.917H257.97C257.738 128.413 257.402 128.025 256.962 127.753C256.53 127.481 256.01 127.345 255.402 127.345C254.818 127.345 254.294 127.481 253.83 127.753C253.366 128.025 253.002 128.413 252.738 128.917C252.474 129.413 252.342 129.997 252.342 130.669C252.342 131.333 252.474 131.917 252.738 132.421C253.002 132.917 253.366 133.301 253.83 133.573C254.294 133.845 254.818 133.981 255.402 133.981C256.01 133.981 256.53 133.849 256.962 133.585C257.402 133.313 257.738 132.925 257.97 132.421H259.278C258.966 133.221 258.47 133.841 257.79 134.281C257.11 134.713 256.314 134.929 255.402 134.929C254.626 134.929 253.918 134.749 253.278 134.389C252.646 134.021 252.146 133.513 251.778 132.865C251.41 132.217 251.226 131.485 251.226 130.669ZM264.771 134.965C264.155 134.965 263.595 134.825 263.091 134.545C262.595 134.265 262.203 133.869 261.915 133.357C261.635 132.837 261.495 132.237 261.495 131.557C261.495 130.885 261.639 130.293 261.927 129.781C262.223 129.261 262.623 128.865 263.127 128.593C263.631 128.313 264.195 128.173 264.819 128.173C265.443 128.173 266.007 128.313 266.511 128.593C267.015 128.865 267.411 129.257 267.699 129.769C267.995 130.281 268.143 130.877 268.143 131.557C268.143 132.237 267.991 132.837 267.687 133.357C267.391 133.869 266.987 134.265 266.475 134.545C265.963 134.825 265.395 134.965 264.771 134.965ZM264.771 134.005C265.163 134.005 265.531 133.913 265.875 133.729C266.219 133.545 266.495 133.269 266.703 132.901C266.919 132.533 267.027 132.085 267.027 131.557C267.027 131.029 266.923 130.581 266.715 130.213C266.507 129.845 266.235 129.573 265.899 129.397C265.563 129.213 265.199 129.121 264.807 129.121C264.407 129.121 264.039 129.213 263.703 129.397C263.375 129.573 263.111 129.845 262.911 130.213C262.711 130.581 262.611 131.029 262.611 131.557C262.611 132.093 262.707 132.545 262.899 132.913C263.099 133.281 263.363 133.557 263.691 133.741C264.019 133.917 264.379 134.005 264.771 134.005ZM271.671 125.977V134.857H270.579V125.977H271.671ZM280.532 131.317C280.532 131.525 280.52 131.745 280.496 131.977H275.24C275.28 132.625 275.5 133.133 275.9 133.501C276.308 133.861 276.8 134.041 277.376 134.041C277.848 134.041 278.24 133.933 278.552 133.717C278.872 133.493 279.096 133.197 279.224 132.829H280.4C280.224 133.461 279.872 133.977 279.344 134.377C278.816 134.769 278.16 134.965 277.376 134.965C276.752 134.965 276.192 134.825 275.696 134.545C275.208 134.265 274.824 133.869 274.544 133.357C274.264 132.837 274.124 132.237 274.124 131.557C274.124 130.877 274.26 130.281 274.532 129.769C274.804 129.257 275.184 128.865 275.672 128.593C276.168 128.313 276.736 128.173 277.376 128.173C278 128.173 278.552 128.309 279.032 128.581C279.512 128.853 279.88 129.229 280.136 129.709C280.4 130.181 280.532 130.717 280.532 131.317ZM279.404 131.089C279.404 130.673 279.312 130.317 279.128 130.021C278.944 129.717 278.692 129.489 278.372 129.337C278.06 129.177 277.712 129.097 277.328 129.097C276.776 129.097 276.304 129.273 275.912 129.625C275.528 129.977 275.308 130.465 275.252 131.089H279.404ZM285.685 128.173C286.253 128.173 286.749 128.297 287.173 128.545C287.605 128.793 287.925 129.105 288.133 129.481V128.281H289.237V135.001C289.237 135.601 289.109 136.133 288.853 136.597C288.597 137.069 288.229 137.437 287.749 137.701C287.277 137.965 286.725 138.097 286.093 138.097C285.229 138.097 284.509 137.893 283.933 137.485C283.357 137.077 283.017 136.521 282.913 135.817H283.993C284.113 136.217 284.361 136.537 284.737 136.777C285.113 137.025 285.565 137.149 286.093 137.149C286.693 137.149 287.181 136.961 287.557 136.585C287.941 136.209 288.133 135.681 288.133 135.001V133.621C287.917 134.005 287.597 134.325 287.173 134.581C286.749 134.837 286.253 134.965 285.685 134.965C285.101 134.965 284.569 134.821 284.089 134.533C283.617 134.245 283.245 133.841 282.973 133.321C282.701 132.801 282.565 132.209 282.565 131.545C282.565 130.873 282.701 130.285 282.973 129.781C283.245 129.269 283.617 128.873 284.089 128.593C284.569 128.313 285.101 128.173 285.685 128.173ZM288.133 131.557C288.133 131.061 288.033 130.629 287.833 130.261C287.633 129.893 287.361 129.613 287.017 129.421C286.681 129.221 286.309 129.121 285.901 129.121C285.493 129.121 285.121 129.217 284.785 129.409C284.449 129.601 284.181 129.881 283.981 130.249C283.781 130.617 283.681 131.049 283.681 131.545C283.681 132.049 283.781 132.489 283.981 132.865C284.181 133.233 284.449 133.517 284.785 133.717C285.121 133.909 285.493 134.005 285.901 134.005C286.309 134.005 286.681 133.909 287.017 133.717C287.361 133.517 287.633 133.233 287.833 132.865C288.033 132.489 288.133 132.053 288.133 131.557ZM292.647 127.213C292.439 127.213 292.263 127.141 292.119 126.997C291.975 126.853 291.903 126.677 291.903 126.469C291.903 126.261 291.975 126.085 292.119 125.941C292.263 125.797 292.439 125.725 292.647 125.725C292.847 125.725 293.015 125.797 293.151 125.941C293.295 126.085 293.367 126.261 293.367 126.469C293.367 126.677 293.295 126.853 293.151 126.997C293.015 127.141 292.847 127.213 292.647 127.213ZM293.175 128.281V134.857H292.083V128.281H293.175ZM298.904 134.965C298.288 134.965 297.728 134.825 297.224 134.545C296.728 134.265 296.336 133.869 296.048 133.357C295.768 132.837 295.628 132.237 295.628 131.557C295.628 130.885 295.772 130.293 296.06 129.781C296.356 129.261 296.756 128.865 297.26 128.593C297.764 128.313 298.328 128.173 298.952 128.173C299.576 128.173 300.14 128.313 300.644 128.593C301.148 128.865 301.544 129.257 301.832 129.769C302.128 130.281 302.276 130.877 302.276 131.557C302.276 132.237 302.124 132.837 301.82 133.357C301.524 133.869 301.12 134.265 300.608 134.545C300.096 134.825 299.528 134.965 298.904 134.965ZM298.904 134.005C299.296 134.005 299.664 133.913 300.008 133.729C300.352 133.545 300.628 133.269 300.836 132.901C301.052 132.533 301.16 132.085 301.16 131.557C301.16 131.029 301.056 130.581 300.848 130.213C300.64 129.845 300.368 129.573 300.032 129.397C299.696 129.213 299.332 129.121 298.94 129.121C298.54 129.121 298.172 129.213 297.836 129.397C297.508 129.573 297.244 129.845 297.044 130.213C296.844 130.581 296.744 131.029 296.744 131.557C296.744 132.093 296.84 132.545 297.032 132.913C297.232 133.281 297.496 133.557 297.824 133.741C298.152 133.917 298.512 134.005 298.904 134.005Z" fill="#77838F"/>
</g>
<rect x="158.793" y="153.143" width="145.207" height="6.85714" rx="3.42857" fill="#EEEEEE"/>
<rect x="236.916" y="153.143" width="67.0838" height="6.85714" rx="3.42857" fill="#D44386"/>
<defs>
<clipPath id="clip0_32_9858">
<rect width="145.207" height="18.2857" fill="white"/>
</clipPath>
<clipPath id="clip1_32_9858">
<rect width="141.81" height="18.2857" fill="white" transform="translate(162.19)"/>
</clipPath>
<clipPath id="clip2_32_9858">
<rect width="145.207" height="18.2857" fill="white" transform="translate(0 59.4286)"/>
</clipPath>
<clipPath id="clip3_32_9858">
<rect width="141.81" height="18.2857" fill="white" transform="translate(162.19 59.4286)"/>
</clipPath>
<clipPath id="clip4_32_9858">
<rect width="145.207" height="18.2857" fill="white" transform="translate(0 118.857)"/>
</clipPath>
<clipPath id="clip5_32_9858">
<rect width="141.81" height="18.2857" fill="white" transform="translate(162.19 118.857)"/>
</clipPath>
</defs>
</svg>
