<svg width="105" height="107" viewBox="0 0 105 107" fill="none" xmlns="http://www.w3.org/2000/svg">
<path opacity="0.7" d="M103.752 52.7183C103.595 81.8338 80.3057 105.564 51.7339 105.721C23.1621 105.878 0.127234 82.4021 0.284176 53.2866C0.441117 24.1711 23.7304 0.441133 52.3022 0.284191C80.8741 0.127249 103.909 23.6028 103.752 52.7183ZM10.631 53.2298C10.5054 76.5222 28.9333 95.3026 51.7907 95.1771C74.6482 95.0515 93.2796 76.0675 93.4052 52.7751C93.5307 29.4827 75.1029 10.7023 52.2454 10.8278C29.3879 10.9534 10.7565 29.9374 10.631 53.2298Z" fill="#EFEFFF"/>
<path d="M52.2738 5.55602C52.2895 2.64447 54.6692 0.242857 57.5634 0.528651C68.2475 1.58366 78.3569 6.01437 86.4434 13.27C95.8474 21.7076 101.869 33.3856 103.38 46.1132C104.89 58.8407 101.785 71.743 94.6464 82.3995C88.5145 91.5537 79.7686 98.5102 69.6788 102.356C66.9341 103.402 64.0379 101.683 63.3381 98.8484V98.8484C62.6472 96.0504 64.3643 93.2252 67.0495 92.1289C74.7399 88.9891 81.3991 83.569 86.1208 76.5201C91.8313 67.9949 94.3155 57.673 93.1073 47.491C91.8991 37.309 87.0815 27.9666 79.5584 21.2165C73.3538 15.6494 65.6606 12.1612 57.5008 11.1405C54.6158 10.7796 52.2581 8.46757 52.2738 5.55602V5.55602Z" fill="#72C2B7"/>
<path d="M52.0032 43C51.5432 43 51.0732 43.04 50.6032 43.14C47.8432 43.67 45.6432 45.9 45.1232 48.66C44.6432 51.27 45.6032 53.67 47.3432 55.22C47.7732 55.6 48.0032 56.13 48.0032 56.69V59C48.0032 60.1 48.9032 61 50.0032 61H50.2832C50.6332 61.6 51.2632 62 52.0032 62C52.7432 62 53.3832 61.6 53.7232 61H54.0032C55.1032 61 56.0032 60.1 56.0032 59V56.69C56.0032 56.14 56.2232 55.6 56.6432 55.23C58.0932 53.95 59.0032 52.08 59.0032 50C59.0032 46.13 55.8732 43 52.0032 43ZM54.0032 57H50.0032V56H54.0032V57ZM50.0032 59V58H54.0032V59H50.0032ZM55.3132 53.74C55.2232 53.82 55.1532 53.92 55.0732 54H48.9232C48.8432 53.91 48.7732 53.81 48.6832 53.73C47.3632 52.55 46.7732 50.79 47.0932 49.03C47.4532 47.09 49.0532 45.48 50.9832 45.1C51.3232 45.03 51.6632 45 52.0032 45C54.7632 45 57.0032 47.24 57.0032 50C57.0032 51.43 56.3932 52.79 55.3132 53.74Z" fill="#72C2B7"/>
<path d="M52.5032 51H51.5032V54H52.5032V51Z" fill="#72C2B7"/>
<path d="M50.3827 48.8737L49.6756 49.5808L51.7969 51.7021L52.504 50.995L50.3827 48.8737Z" fill="#72C2B7"/>
<path d="M51.5042 51.0052L52.2113 51.7123L54.3326 49.591L53.6255 48.8839L51.5042 51.0052Z" fill="#72C2B7"/>
</svg>
