<svg width="309" height="198" viewBox="0 0 309 198" fill="none" xmlns="http://www.w3.org/2000/svg">
<path d="M39.0226 164.411L306.994 162.939" stroke="#E4E4E4" stroke-opacity="0.2" stroke-linecap="square"/>
<path d="M39.2316 125.685L307.203 124.214" stroke="#E4E4E4" stroke-opacity="0.2" stroke-linecap="square"/>
<path d="M39.4404 86.9596L307.412 85.4877" stroke="#E4E4E4" stroke-opacity="0.2" stroke-linecap="square"/>
<path d="M39.6488 48.2338L307.62 46.7619" stroke="#E4E4E4" stroke-opacity="0.2" stroke-linecap="square"/>
<path d="M39.858 9.50801L307.83 8.03608" stroke="#E4E4E4" stroke-opacity="0.2" stroke-linecap="square"/>
<path d="M39.2904 114.746C51.0735 112.612 60.8218 99.9466 74.8793 97.7494C82.3718 96.5784 88.3574 98.7446 95.0304 102.125C101.703 105.505 100.386 106.988 115.421 109.54C127.828 111.646 131.036 119.112 143.2 119.945C155.365 120.779 161.145 92.5677 173.981 94.8496C186.816 97.1314 189.416 91.0352 201.431 102.496C213.447 113.956 224.654 104.697 239.828 102.261C255.001 99.8254 258.911 107.102 266.111 106.121C273.311 105.141 279.693 122.896 285.846 125.45C291.999 128.004 293.799 118.594 306.904 118.522" stroke="#FDE401" stroke-width="2" stroke-linecap="round" stroke-linejoin="round"/>
<path d="M39.6107 95.7029C55.0804 93.0405 53.9675 108.358 74.3056 110.48C94.6437 112.602 100.395 96.9337 109.693 92.4151C118.99 87.8965 123.222 67.5153 138.67 68.8051C154.118 70.0949 161.772 83.8263 174.643 85.4739C187.513 87.1214 190.028 98.5033 202.089 106.857C214.151 115.21 225.222 116.18 240.43 114.378C255.637 112.576 259.852 95.1804 267.069 94.4535C274.285 93.7265 280.68 101.976 286.852 103.832C293.025 105.688 294.782 114.08 307.92 114.008" stroke="#E0652C" stroke-width="2" stroke-linecap="round" stroke-linejoin="round"/>
<path d="M245.71 184.98L245.669 192.592L244.668 192.597L244.699 186.921L242.138 192.611L241.434 192.615L238.924 186.942L238.894 192.629L237.893 192.634L237.934 185.022L239.012 185.016L241.794 191.293L244.643 184.986L245.71 184.98ZM247.009 189.548C247.013 188.932 247.14 188.393 247.392 187.929C247.644 187.459 247.987 187.094 248.421 186.835C248.862 186.576 249.351 186.445 249.886 186.442C250.414 186.439 250.872 186.55 251.259 186.775C251.647 187 251.935 187.285 252.123 187.628L252.129 186.528L253.141 186.523L253.109 192.551L252.097 192.556L252.103 191.434C251.903 191.787 251.605 192.082 251.207 192.319C250.817 192.549 250.362 192.665 249.841 192.668C249.306 192.671 248.823 192.541 248.392 192.28C247.96 192.018 247.621 191.65 247.375 191.174C247.128 190.699 247.006 190.157 247.009 189.548ZM252.113 189.531C252.116 189.077 252.026 188.681 251.845 188.345C251.663 188.008 251.415 187.753 251.101 187.579C250.794 187.397 250.453 187.308 250.079 187.31C249.705 187.312 249.364 187.401 249.055 187.579C248.746 187.757 248.499 188.015 248.314 188.353C248.129 188.692 248.035 189.088 248.032 189.543C248.03 190.005 248.119 190.408 248.301 190.751C248.482 191.087 248.727 191.346 249.034 191.528C249.341 191.702 249.681 191.789 250.055 191.786C250.429 191.784 250.771 191.695 251.08 191.517C251.396 191.332 251.647 191.07 251.832 190.732C252.017 190.386 252.111 189.986 252.113 189.531ZM260.025 186.485L256.347 195.371L255.313 195.376L256.517 192.466L254.118 186.517L255.229 186.511L257.095 191.385L258.991 186.491L260.025 186.485Z" fill="#999999"/>
<path d="M193.703 190.882L190.359 190.901L189.734 192.609L188.678 192.615L191.491 184.977L192.646 184.97L195.366 192.578L194.31 192.584L193.703 190.882ZM193.422 190.07L192.056 186.205L190.65 190.085L193.422 190.07ZM197.601 187.66C197.809 187.299 198.111 187.004 198.508 186.775C198.905 186.545 199.357 186.429 199.863 186.427C200.406 186.424 200.893 186.549 201.324 186.803C201.755 187.058 202.094 187.419 202.341 187.887C202.588 188.347 202.71 188.886 202.706 189.502C202.703 190.11 202.575 190.654 202.324 191.132C202.072 191.61 201.725 191.982 201.284 192.248C200.849 192.515 200.365 192.649 199.829 192.652C199.309 192.655 198.851 192.544 198.456 192.319C198.069 192.094 197.777 191.806 197.581 191.455L197.575 192.566L196.574 192.571L196.618 184.431L197.619 184.426L197.601 187.66ZM201.683 189.507C201.686 189.053 201.596 188.657 201.415 188.321C201.233 187.985 200.985 187.729 200.671 187.555C200.364 187.381 200.023 187.295 199.649 187.297C199.283 187.299 198.941 187.392 198.625 187.577C198.316 187.755 198.065 188.017 197.873 188.362C197.687 188.701 197.594 189.094 197.591 189.541C197.589 189.996 197.678 190.395 197.86 190.738C198.049 191.075 198.297 191.334 198.604 191.515C198.918 191.689 199.259 191.776 199.625 191.774C199.999 191.772 200.341 191.682 200.65 191.504C200.966 191.319 201.217 191.057 201.402 190.719C201.587 190.373 201.681 189.969 201.683 189.507ZM205.036 187.476C205.214 187.13 205.464 186.861 205.788 186.669C206.119 186.476 206.519 186.379 206.989 186.376L206.983 187.41L206.719 187.412C205.597 187.418 205.033 188.03 205.026 189.247L205.008 192.525L204.007 192.53L204.04 186.503L205.041 186.497L205.036 187.476Z" fill="#999999"/>
<path d="M142.257 184.965L142.216 192.577L141.215 192.582L141.245 186.906L138.685 192.596L137.981 192.6L135.471 186.927L135.44 192.614L134.439 192.62L134.48 185.008L135.558 185.002L138.34 191.278L141.19 184.971L142.257 184.965ZM143.556 189.534C143.559 188.918 143.687 188.378 143.938 187.915C144.19 187.444 144.533 187.079 144.967 186.82C145.409 186.561 145.897 186.43 146.432 186.427C146.96 186.424 147.418 186.535 147.806 186.76C148.193 186.986 148.481 187.27 148.67 187.614L148.676 186.514L149.688 186.508L149.655 192.536L148.643 192.542L148.649 191.42C148.449 191.773 148.151 192.068 147.754 192.304C147.364 192.534 146.908 192.65 146.388 192.653C145.853 192.656 145.369 192.527 144.938 192.265C144.507 192.003 144.168 191.635 143.921 191.16C143.674 190.684 143.553 190.142 143.556 189.534ZM148.66 189.517C148.662 189.062 148.573 188.666 148.391 188.33C148.21 187.994 147.962 187.739 147.647 187.564C147.34 187.383 147 187.293 146.626 187.295C146.252 187.297 145.91 187.387 145.601 187.565C145.292 187.742 145.045 188 144.86 188.339C144.675 188.677 144.581 189.073 144.579 189.528C144.576 189.99 144.666 190.393 144.847 190.737C145.029 191.073 145.273 191.332 145.58 191.513C145.887 191.688 146.228 191.774 146.602 191.772C146.976 191.77 147.317 191.68 147.626 191.502C147.942 191.317 148.193 191.055 148.378 190.717C148.563 190.371 148.657 189.971 148.66 189.517ZM152.375 187.472C152.553 187.127 152.804 186.858 153.127 186.665C153.458 186.473 153.859 186.375 154.328 186.373L154.322 187.407L154.058 187.408C152.936 187.414 152.372 188.026 152.366 189.243L152.348 192.521L151.347 192.527L151.379 186.499L152.38 186.493L152.375 187.472Z" fill="#999999"/>
<path d="M87.2335 184.924L87.2291 185.738L83.8961 185.757L83.8822 188.342L86.5881 188.327L86.5838 189.141L83.8778 189.156L83.8592 192.61L82.8582 192.615L82.8995 184.948L87.2335 184.924ZM93.9185 189.309C93.9175 189.5 93.9054 189.702 93.8822 189.915L89.0643 189.941C89.0978 190.535 89.2969 190.999 89.6618 191.335C90.034 191.663 90.4841 191.825 91.0121 191.822C91.4447 191.82 91.8046 191.719 92.0917 191.519C92.3861 191.312 92.5929 191.04 92.712 190.702L93.79 190.696C93.6256 191.276 93.3004 191.751 92.8144 192.12C92.3285 192.482 91.7262 192.665 91.0075 192.669C90.4355 192.672 89.9229 192.547 89.4696 192.293C89.0237 192.039 88.6736 191.677 88.4195 191.21C88.1654 190.734 88.04 190.185 88.0434 189.562C88.0468 188.938 88.1744 188.391 88.4262 187.921C88.6781 187.45 89.0283 187.089 89.477 186.837C89.9331 186.578 90.4544 186.447 91.0411 186.443C91.6131 186.44 92.1184 186.562 92.557 186.809C92.9957 187.056 93.3311 187.399 93.5634 187.837C93.8031 188.269 93.9215 188.759 93.9185 189.309ZM92.8856 189.106C92.8877 188.725 92.8051 188.399 92.6379 188.129C92.4707 187.851 92.2409 187.643 91.9483 187.505C91.6631 187.36 91.3445 187.289 90.9925 187.291C90.4865 187.293 90.053 187.457 89.6919 187.782C89.3382 188.106 89.1341 188.555 89.0797 189.127L92.8856 189.106ZM96.2497 187.636C96.457 187.275 96.7592 186.98 97.1564 186.751C97.5536 186.521 98.0053 186.405 98.5112 186.402C99.0539 186.399 99.5409 186.525 99.9721 186.779C100.403 187.034 100.742 187.395 100.989 187.863C101.236 188.323 101.358 188.862 101.355 189.478C101.351 190.086 101.224 190.63 100.972 191.108C100.72 191.586 100.373 191.958 99.9318 192.224C99.4977 192.491 99.013 192.625 98.4777 192.628C97.957 192.631 97.4993 192.52 97.1045 192.295C96.7171 192.07 96.4253 191.782 96.2292 191.431L96.2233 192.542L95.2223 192.547L95.2661 184.407L96.2671 184.402L96.2497 187.636ZM100.332 189.483C100.334 189.029 100.244 188.633 100.063 188.297C99.8814 187.96 99.6335 187.705 99.3191 187.531C99.0121 187.357 98.6716 187.27 98.2976 187.272C97.9309 187.274 97.5894 187.368 97.2731 187.553C96.9642 187.731 96.7134 187.992 96.5209 188.338C96.3357 188.677 96.242 189.069 96.2396 189.517C96.2371 189.971 96.3266 190.371 96.5081 190.714C96.6969 191.05 96.9449 191.309 97.2519 191.491C97.5662 191.665 97.9068 191.751 98.2734 191.749C98.6474 191.747 98.9889 191.657 99.2978 191.48C99.6142 191.295 99.8649 191.033 100.05 190.695C100.235 190.349 100.329 189.945 100.332 189.483Z" fill="#999999"/>
<path d="M36.4939 185.752L36.4801 188.314L39.274 188.299L39.2696 189.124L36.4756 189.139L36.4614 191.779L39.5853 191.762L39.5809 192.587L35.456 192.61L35.4973 184.932L39.6223 184.909L39.6178 185.734L36.4939 185.752ZM44.0656 186.425C44.7989 186.421 45.3917 186.641 45.8439 187.086C46.2962 187.524 46.5201 188.16 46.5156 188.996L46.4964 192.549L45.5064 192.555L45.5248 189.145C45.5281 188.543 45.3802 188.086 45.0812 187.772C44.7823 187.451 44.3725 187.292 43.8519 187.295C43.3239 187.298 42.9013 187.465 42.5842 187.797C42.2744 188.129 42.1179 188.61 42.1145 189.241L42.0965 192.573L41.0955 192.579L41.128 186.551L42.129 186.546L42.1244 187.404C42.324 187.094 42.593 186.855 42.9312 186.684C43.2768 186.514 43.6549 186.427 44.0656 186.425ZM53.6489 189.265C53.6479 189.456 53.6358 189.658 53.6127 189.87L48.7948 189.897C48.8282 190.491 49.0274 190.955 49.3922 191.29C49.7644 191.618 50.2145 191.781 50.7425 191.778C51.1752 191.776 51.5351 191.675 51.8221 191.475C52.1166 191.268 52.3233 190.996 52.4425 190.658L53.5205 190.652C53.356 191.232 53.0308 191.707 52.5448 192.076C52.0589 192.438 51.4566 192.621 50.738 192.625C50.166 192.628 49.6533 192.503 49.2001 192.248C48.7541 191.994 48.4041 191.633 48.15 191.165C47.8959 190.69 47.7705 190.141 47.7739 189.517C47.7772 188.894 47.9048 188.347 48.1567 187.876C48.4085 187.406 48.7588 187.044 49.2075 186.793C49.6635 186.533 50.1849 186.402 50.7715 186.399C51.3435 186.396 51.8488 186.518 52.2875 186.765C52.7261 187.012 53.0616 187.354 53.2939 187.793C53.5336 188.224 53.6519 188.715 53.6489 189.265ZM52.6161 189.062C52.6181 188.68 52.5356 188.355 52.3684 188.084C52.2012 187.806 51.9713 187.599 51.6788 187.461C51.3936 187.316 51.075 187.244 50.723 187.246C50.217 187.249 49.7834 187.413 49.4224 187.737C49.0686 188.062 48.8646 188.51 48.8101 189.083L52.6161 189.062Z" fill="#999999"/>
<path d="M290.7 184.929L290.669 190.594C290.666 191.224 290.469 191.731 290.078 192.115C289.688 192.491 289.173 192.681 288.535 192.684C287.89 192.688 287.374 192.5 286.987 192.121C286.601 191.734 286.409 191.207 286.413 190.54L287.414 190.535C287.419 190.909 287.513 191.212 287.695 191.446C287.884 191.68 288.166 191.795 288.54 191.793C288.914 191.791 289.193 191.68 289.378 191.459C289.562 191.23 289.656 190.944 289.657 190.599L289.688 184.934L290.7 184.929ZM298.009 186.528L297.977 192.556L296.976 192.561L296.98 191.67C296.788 191.979 296.519 192.223 296.173 192.4C295.835 192.571 295.461 192.657 295.05 192.66C294.581 192.662 294.16 192.569 293.787 192.381C293.414 192.185 293.118 191.893 292.9 191.505C292.69 191.118 292.586 190.646 292.589 190.088L292.608 186.557L293.598 186.552L293.58 189.951C293.577 190.545 293.724 191.002 294.023 191.323C294.322 191.637 294.732 191.792 295.253 191.79C295.788 191.787 296.211 191.619 296.52 191.288C296.83 190.956 296.987 190.475 296.99 189.844L297.008 186.533L298.009 186.528ZM302.637 186.392C303.37 186.388 303.963 186.609 304.415 187.053C304.867 187.491 305.091 188.128 305.087 188.964L305.068 192.517L304.078 192.522L304.096 189.112C304.099 188.511 303.951 188.053 303.652 187.74C303.353 187.419 302.944 187.259 302.423 187.262C301.895 187.265 301.472 187.433 301.155 187.764C300.846 188.096 300.689 188.577 300.686 189.208L300.668 192.541L299.667 192.546L299.699 186.518L300.7 186.513L300.695 187.371C300.895 187.062 301.164 186.822 301.502 186.651C301.848 186.481 302.226 186.394 302.637 186.392Z" fill="#999999"/>
<path d="M25.6479 162.576C25.6547 161.314 25.8654 160.331 26.2798 159.624C26.6943 158.911 27.4149 158.551 28.4415 158.546C29.4608 158.54 30.1739 158.892 30.5807 159.601C30.9876 160.303 31.1876 161.284 31.1808 162.545C31.1739 163.829 30.9632 164.827 30.5487 165.541C30.1342 166.254 29.4173 166.614 28.398 166.62C27.3714 166.625 26.6546 166.273 26.2478 165.564C25.841 164.855 25.641 163.859 25.6479 162.576ZM30.1909 162.551C30.1943 161.913 30.1532 161.374 30.0676 160.935C29.9893 160.488 29.8189 160.129 29.5564 159.859C29.3012 159.59 28.9279 159.456 28.4366 159.459C27.938 159.461 27.5559 159.599 27.2904 159.872C27.0323 160.145 26.858 160.505 26.7676 160.953C26.6846 161.393 26.6414 161.932 26.6379 162.57C26.6344 163.23 26.6717 163.784 26.75 164.231C26.8355 164.678 27.0059 165.036 27.2611 165.306C27.5237 165.576 27.9043 165.709 28.4029 165.707C28.8943 165.704 29.269 165.566 29.5271 165.293C29.7926 165.021 29.9668 164.66 30.0499 164.213C30.1403 163.765 30.1873 163.211 30.1909 162.551Z" fill="#999999"/>
<path d="M12.4855 127.179C13.4209 126.426 14.1538 125.81 14.6844 125.33C15.215 124.843 15.6613 124.339 16.0235 123.816C16.393 123.286 16.5791 122.768 16.5818 122.262C16.5844 121.785 16.4691 121.412 16.2359 121.142C16.01 120.865 15.6405 120.727 15.1271 120.73C14.6285 120.733 14.239 120.893 13.9586 121.21C13.6856 121.519 13.5367 121.934 13.5119 122.455L12.5439 122.46C12.5777 121.639 12.8304 121.003 13.3022 120.553C13.7739 120.103 14.3801 119.876 15.1208 119.872C15.8761 119.868 16.4726 120.074 16.9104 120.489C17.3554 120.905 17.576 121.479 17.572 122.213C17.5688 122.821 17.3822 123.416 17.0124 123.998C16.65 124.572 16.2367 125.08 15.7723 125.522C15.308 125.958 14.7149 126.467 13.9931 127.05L17.7771 127.029L17.7726 127.865L12.4816 127.894L12.4855 127.179ZM18.9511 123.888C18.9579 122.627 19.1685 121.643 19.583 120.937C19.9975 120.223 20.7181 119.863 21.7447 119.858C22.764 119.852 23.4771 120.204 23.8839 120.913C24.2908 121.615 24.4908 122.596 24.484 123.858C24.4771 125.141 24.2664 126.139 23.8519 126.853C23.4374 127.566 22.7205 127.926 21.7012 127.932C20.6745 127.937 19.9578 127.586 19.551 126.877C19.1441 126.167 18.9442 125.171 18.9511 123.888ZM23.494 123.863C23.4975 123.225 23.4564 122.686 23.3708 122.247C23.2925 121.8 23.1221 121.441 22.8596 121.172C22.6044 120.902 22.2311 120.768 21.7398 120.771C21.2411 120.774 20.8591 120.911 20.5936 121.184C20.3355 121.457 20.1612 121.817 20.0708 122.265C19.9878 122.705 19.9445 123.245 19.9411 123.883C19.9375 124.543 19.9749 125.096 20.0531 125.543C20.1387 125.99 20.3091 126.348 20.5643 126.618C20.8268 126.888 21.2074 127.021 21.7061 127.019C22.1974 127.016 22.5722 126.878 22.8303 126.606C23.0957 126.333 23.27 125.972 23.3531 125.525C23.4435 125.077 23.4905 124.523 23.494 123.863ZM25.8582 123.85C25.865 122.589 26.0757 121.605 26.4901 120.899C26.9046 120.185 27.6252 119.825 28.6518 119.82C29.6711 119.814 30.3842 120.166 30.791 120.875C31.1979 121.577 31.3979 122.558 31.3911 123.82C31.3842 125.103 31.1735 126.101 30.759 126.815C30.3445 127.529 29.6276 127.888 28.6083 127.894C27.5817 127.899 26.8649 127.548 26.4581 126.839C26.0513 126.13 25.8513 125.133 25.8582 123.85ZM30.4012 123.825C30.4046 123.187 30.3635 122.648 30.2779 122.209C30.1996 121.762 30.0292 121.404 29.7667 121.134C29.5115 120.864 29.1382 120.73 28.6469 120.733C28.1482 120.736 27.7662 120.873 27.5007 121.146C27.2426 121.419 27.0683 121.779 26.9779 122.227C26.8949 122.667 26.8516 123.207 26.8482 123.845C26.8447 124.505 26.882 125.058 26.9603 125.505C27.0458 125.952 27.2162 126.31 27.4714 126.58C27.734 126.85 28.1146 126.983 28.6132 126.981C29.1046 126.978 29.4793 126.84 29.7374 126.568C30.0029 126.295 30.1771 125.935 30.2602 125.487C30.3506 125.039 30.3976 124.485 30.4012 123.825Z" fill="#999999"/>
<path d="M11.9877 87.4894L11.9918 86.7304L15.8816 81.3633L17.0805 81.3567L17.0523 86.5926L18.1523 86.5866L18.1476 87.4556L17.0476 87.4616L17.0381 89.2326L16.0481 89.238L16.0576 87.4671L11.9877 87.4894ZM16.1289 82.4069L13.1474 86.6141L16.1063 86.5978L16.1289 82.4069ZM19.1599 85.1621C19.1667 83.9008 19.3773 82.917 19.7918 82.2108C20.2063 81.4972 20.9269 81.1376 21.9535 81.132C22.9728 81.1264 23.6859 81.4781 24.0927 82.1872C24.4996 82.8889 24.6996 83.8704 24.6928 85.1317C24.6859 86.4151 24.4752 87.4135 24.0607 88.1271C23.6462 88.8407 22.9293 89.2002 21.91 89.2058C20.8833 89.2115 20.1666 88.8598 19.7598 88.1507C19.3529 87.4416 19.153 86.4454 19.1599 85.1621ZM23.7028 85.1372C23.7063 84.4992 23.6652 83.9604 23.5796 83.5209C23.5013 83.074 23.3309 82.7157 23.0684 82.4458C22.8132 82.1759 22.4399 82.0423 21.9486 82.045C21.4499 82.0477 21.0679 82.1854 20.8024 82.4582C20.5443 82.731 20.37 83.0912 20.2796 83.5391C20.1966 83.9795 20.1533 84.5187 20.1499 85.1567C20.1463 85.8167 20.1837 86.3701 20.2619 86.817C20.3475 87.2638 20.5179 87.6222 20.7731 87.8921C21.0356 88.162 21.4162 88.2956 21.9149 88.2929C22.4062 88.2902 22.781 88.1524 23.0391 87.8797C23.3045 87.6069 23.4788 87.2466 23.5619 86.7989C23.6523 86.3511 23.6993 85.7972 23.7028 85.1372ZM26.067 85.1242C26.0738 83.8629 26.2845 82.8791 26.6989 82.1729C27.1134 81.4593 27.834 81.0997 28.8606 81.094C29.8799 81.0884 30.593 81.4402 30.9998 82.1492C31.4067 82.851 31.6067 83.8325 31.5999 85.0938C31.593 86.3771 31.3823 87.3756 30.9678 88.0891C30.5533 88.8027 29.8364 89.1623 28.8171 89.1679C27.7905 89.1735 27.0737 88.8218 26.6669 88.1128C26.2601 87.4037 26.0601 86.4075 26.067 85.1242ZM30.61 85.0992C30.6134 84.4612 30.5723 83.9225 30.4867 83.483C30.4084 83.0361 30.238 82.6777 29.9755 82.4078C29.7203 82.1379 29.347 82.0043 28.8557 82.007C28.357 82.0097 27.975 82.1475 27.7095 82.4203C27.4514 82.693 27.2771 83.0533 27.1867 83.5011C27.1037 83.9415 27.0604 84.4808 27.057 85.1188C27.0535 85.7787 27.0908 86.3322 27.1691 86.7791C27.2546 87.2259 27.425 87.5843 27.6802 87.8542C27.9428 88.1241 28.3234 88.2577 28.822 88.2549C29.3134 88.2522 29.6881 88.1145 29.9462 87.8418C30.2117 87.569 30.3859 87.2087 30.469 86.7609C30.5594 86.3131 30.6064 85.7592 30.61 85.0992Z" fill="#999999"/>
<path d="M16.8299 44.4483C16.6729 43.6352 16.1728 43.231 15.3295 43.2356C14.6768 43.2392 14.1878 43.4949 13.8624 44.0027C13.5371 44.5031 13.375 45.3289 13.3761 46.4802C13.5468 46.098 13.8271 45.7994 14.2169 45.5846C14.614 45.3625 15.0546 45.25 15.5386 45.2474C16.2939 45.2432 16.894 45.4746 17.3388 45.9415C17.7909 46.4083 18.0148 47.056 18.0103 47.8847C18.0076 48.3834 17.9062 48.8312 17.7061 49.2283C17.5133 49.6254 17.2182 49.9423 16.821 50.1791C16.4311 50.4159 15.9574 50.5359 15.4001 50.5389C14.6448 50.5431 14.0554 50.3776 13.6319 50.0427C13.2084 49.7077 12.9139 49.2436 12.7484 48.6506C12.5829 48.0575 12.5026 47.3246 12.5073 46.452C12.5218 43.7607 13.4677 42.4099 15.345 42.3996C16.0636 42.3956 16.6273 42.5869 17.0358 42.9733C17.4444 43.3597 17.6837 43.8497 17.7539 44.4433L16.8299 44.4483ZM15.3251 46.0955C15.0097 46.0973 14.7124 46.1649 14.433 46.2984C14.1537 46.4246 13.9253 46.6202 13.7479 46.8852C13.5778 47.1427 13.4918 47.4585 13.4898 47.8325C13.4868 48.3899 13.6457 48.8436 13.9664 49.1939C14.2872 49.5367 14.7483 49.7065 15.3496 49.7032C15.8629 49.7004 16.2708 49.5405 16.5731 49.2235C16.8829 48.8992 17.0392 48.4657 17.0421 47.923C17.0452 47.351 16.901 46.9045 16.6094 46.5835C16.3178 46.2551 15.8897 46.0924 15.3251 46.0955ZM19.3685 46.4363C19.3753 45.175 19.5859 44.1912 20.0003 43.485C20.4148 42.7714 21.1354 42.4118 22.1621 42.4061C23.1814 42.4005 23.8945 42.7523 24.3013 43.4613C24.7081 44.1631 24.9082 45.1446 24.9014 46.4059C24.8945 47.6892 24.6838 48.6877 24.2693 49.4012C23.8548 50.1148 23.1379 50.4744 22.1185 50.48C21.0919 50.4857 20.3752 50.1339 19.9683 49.4249C19.5615 48.7158 19.3616 47.7196 19.3685 46.4363ZM23.9114 46.4113C23.9148 45.7734 23.8737 45.2346 23.7881 44.7951C23.7099 44.3482 23.5395 43.9898 23.2769 43.72C23.0217 43.45 22.6485 43.3164 22.1571 43.3191C21.6585 43.3219 21.2764 43.4596 21.011 43.7324C20.7528 44.0051 20.5786 44.3654 20.4882 44.8132C20.4051 45.2537 20.3619 45.7929 20.3585 46.4309C20.3549 47.0909 20.3922 47.6443 20.4705 48.0912C20.5561 48.538 20.7265 48.8964 20.9817 49.1663C21.2442 49.4362 21.6248 49.5698 22.1235 49.567C22.6148 49.5643 22.9895 49.4266 23.2476 49.1539C23.5131 48.8811 23.6874 48.5208 23.7704 48.073C23.8609 47.6252 23.9078 47.0713 23.9114 46.4113ZM26.2756 46.3984C26.2824 45.137 26.493 44.1533 26.9075 43.447C27.322 42.7334 28.0425 42.3738 29.0692 42.3682C30.0885 42.3626 30.8016 42.7143 31.2084 43.4234C31.6153 44.1251 31.8153 45.1067 31.8085 46.368C31.8016 47.6513 31.5909 48.6497 31.1764 49.3633C30.7619 50.0769 30.045 50.4365 29.0257 50.4421C27.999 50.4477 27.2823 50.096 26.8755 49.3869C26.4686 48.6779 26.2687 47.6817 26.2756 46.3984ZM30.8185 46.3734C30.822 45.7354 30.7809 45.1967 30.6952 44.7572C30.617 44.3103 30.4466 43.9519 30.1841 43.682C29.9289 43.4121 29.5556 43.2785 29.0643 43.2812C28.5656 43.2839 28.1836 43.4217 27.9181 43.6945C27.66 43.9672 27.4857 44.3275 27.3953 44.7753C27.3123 45.2157 27.269 45.7549 27.2656 46.3929C27.262 47.0529 27.2994 47.6064 27.3776 48.0532C27.4632 48.5001 27.6336 48.8585 27.8888 49.1284C28.1513 49.3983 28.5319 49.5318 29.0306 49.5291C29.5219 49.5264 29.8966 49.3887 30.1548 49.1159C30.4202 48.8432 30.5945 48.4829 30.6776 48.0351C30.768 47.5873 30.815 47.0334 30.8185 46.3734Z" fill="#999999"/>
<path d="M14.0903 7.66367C13.6805 7.5046 13.3664 7.27167 13.1481 6.96488C12.9298 6.65809 12.8218 6.2847 12.8241 5.84471C12.8263 5.44872 12.9272 5.09251 13.1269 4.77609C13.3266 4.45234 13.6213 4.19774 14.011 4.01227C14.408 3.81943 14.8852 3.72148 15.4425 3.71842C15.9998 3.71536 16.4723 3.80809 16.8599 3.99662C17.2549 4.17778 17.5506 4.42914 17.7468 4.75072C17.9505 5.06492 18.0512 5.42002 18.0491 5.81601C18.0468 6.24134 17.9311 6.61596 17.702 6.93987C17.473 7.25644 17.1601 7.49282 16.7632 7.64899C17.2172 7.78583 17.5752 8.02952 17.8373 8.38006C18.1067 8.72323 18.2401 9.14048 18.2375 9.63181C18.2349 10.1085 18.1153 10.5271 17.8787 10.8877C17.6422 11.241 17.307 11.5178 16.8733 11.7182C16.4469 11.9112 15.9551 12.0092 15.3978 12.0123C14.8405 12.0154 14.3496 11.9227 13.9253 11.7344C13.5084 11.5387 13.1836 11.2655 12.9508 10.9148C12.7181 10.5568 12.603 10.1394 12.6056 9.66274C12.6082 9.17142 12.7425 8.74903 13.0084 8.39559C13.2743 8.04214 13.6349 7.79817 14.0903 7.66367ZM17.0804 5.94233C17.0828 5.495 16.938 5.15114 16.646 4.91076C16.354 4.67037 15.9513 4.55159 15.438 4.55441C14.932 4.55719 14.5317 4.68038 14.237 4.92399C13.9424 5.1676 13.7939 5.51673 13.7914 5.97139C13.7892 6.38205 13.9378 6.71122 14.2371 6.9589C14.5437 7.20654 14.9391 7.32903 15.423 7.32637C15.9144 7.32367 16.311 7.19683 16.613 6.94585C16.9224 6.68749 17.0782 6.35299 17.0804 5.94233ZM15.4189 8.09636C14.8762 8.09934 14.4319 8.23011 14.0858 8.48866C13.7398 8.73989 13.5655 9.11849 13.5627 9.62449C13.5602 10.0938 13.7232 10.4706 14.0516 10.7548C14.3874 11.0389 14.8376 11.1794 15.4023 11.1763C15.9669 11.1732 16.415 11.0278 16.7466 10.7399C17.0781 10.4521 17.2452 10.0736 17.2477 9.60425C17.2503 9.11292 17.0837 8.73985 16.7477 8.48504C16.4118 8.2229 15.9689 8.09334 15.4189 8.09636ZM19.5772 7.71053C19.584 6.44922 19.7947 5.46544 20.2091 4.75919C20.6236 4.04561 21.3442 3.686 22.3708 3.68036C23.3902 3.67477 24.1032 4.0265 24.5101 4.73557C24.9169 5.4373 25.117 6.41883 25.1102 7.68014C25.1032 8.96346 24.8925 9.9619 24.478 10.6755C24.0635 11.3891 23.3466 11.7486 22.3273 11.7542C21.3007 11.7599 20.5839 11.4082 20.1771 10.6991C19.7703 9.99004 19.5703 8.99385 19.5772 7.71053ZM24.1202 7.68558C24.1236 7.04759 24.0825 6.50884 23.9969 6.06933C23.9186 5.62244 23.7482 5.26406 23.4857 4.99418C23.2305 4.72426 22.8572 4.59065 22.3659 4.59335C21.8673 4.59609 21.4852 4.73385 21.2197 5.00663C20.9616 5.27937 20.7873 5.63964 20.6969 6.08745C20.6139 6.52789 20.5707 7.0671 20.5672 7.70509C20.5637 8.36508 20.601 8.91852 20.6793 9.36541C20.7649 9.81225 20.9353 10.1706 21.1905 10.4406C21.453 10.7104 21.8336 10.844 22.3322 10.8413C22.8236 10.8386 23.1983 10.7008 23.4564 10.4281C23.7219 10.1553 23.8961 9.79505 23.9792 9.34728C24.0696 8.89947 24.1166 8.34557 24.1202 7.68558ZM26.4844 7.67259C26.4912 6.41128 26.7018 5.4275 27.1162 4.72125C27.5307 4.00767 28.2513 3.64806 29.278 3.64242C30.2973 3.63683 31.0104 3.98856 31.4172 4.69763C31.824 5.39936 32.0241 6.38089 32.0173 7.6422C32.0104 8.92552 31.7997 9.92396 31.3852 10.6375C30.9707 11.3511 30.2538 11.7107 29.2344 11.7163C28.2078 11.7219 27.4911 11.3702 27.0842 10.6612C26.6774 9.9521 26.4774 8.95591 26.4844 7.67259ZM31.0273 7.64764C31.0307 7.00965 30.9896 6.4709 30.904 6.03139C30.8258 5.5845 30.6554 5.22612 30.3928 4.95624C30.1376 4.68632 29.7644 4.55271 29.273 4.55541C28.7744 4.55815 28.3923 4.69591 28.1269 4.96869C27.8687 5.24143 27.6945 5.6017 27.6041 6.04951C27.521 6.48995 27.4778 7.02916 27.4743 7.66715C27.4708 8.32714 27.5081 8.88058 27.5864 9.32747C27.672 9.77431 27.8424 10.1327 28.0976 10.4026C28.3601 10.6725 28.7407 10.8061 29.2394 10.8033C29.7307 10.8006 30.1054 10.6629 30.3635 10.3902C30.629 10.1174 30.8033 9.75711 30.8863 9.30934C30.9768 8.86153 31.0237 8.30763 31.0273 7.64764Z" fill="#999999"/>
</svg>
