<svg width="404" height="228" viewBox="0 0 404 228" fill="none" xmlns="http://www.w3.org/2000/svg">
<rect width="404" height="228" rx="8" fill="white"/>
<g clip-path="url(#clip0_306_4981)">
<path d="M17.288 48.096C16.696 48.096 16.12 48.004 15.56 47.82C15.008 47.636 14.556 47.388 14.204 47.076L14.756 46.128C15.036 46.392 15.4 46.608 15.848 46.776C16.296 46.944 16.772 47.028 17.276 47.028C17.916 47.028 18.408 46.892 18.752 46.62C19.096 46.348 19.268 45.984 19.268 45.528C19.268 45.216 19.192 44.944 19.04 44.712C18.888 44.48 18.624 44.304 18.248 44.184C17.88 44.056 17.372 43.992 16.724 43.992H14.816L15.26 39.6H20V40.644H15.704L16.328 40.056L15.98 43.524L15.356 42.948H16.976C17.816 42.948 18.492 43.056 19.004 43.272C19.516 43.488 19.888 43.788 20.12 44.172C20.352 44.548 20.468 44.984 20.468 45.48C20.468 45.96 20.352 46.4 20.12 46.8C19.888 47.192 19.536 47.508 19.064 47.748C18.6 47.98 18.008 48.096 17.288 48.096ZM26.3546 48.072C25.8266 48.072 25.3426 47.952 24.9026 47.712C24.4706 47.464 24.1226 47.1 23.8586 46.62C23.6026 46.14 23.4746 45.54 23.4746 44.82C23.4746 44.1 23.5986 43.5 23.8466 43.02C24.1026 42.54 24.4466 42.18 24.8786 41.94C25.3186 41.7 25.8106 41.58 26.3546 41.58C26.9786 41.58 27.5306 41.716 28.0106 41.988C28.4906 42.26 28.8706 42.64 29.1506 43.128C29.4306 43.608 29.5706 44.172 29.5706 44.82C29.5706 45.468 29.4306 46.036 29.1506 46.524C28.8706 47.012 28.4906 47.392 28.0106 47.664C27.5306 47.936 26.9786 48.072 26.3546 48.072ZM22.9826 50.328V41.64H24.0866V43.356L24.0146 44.832L24.1346 46.308V50.328H22.9826ZM26.2586 47.064C26.6666 47.064 27.0306 46.972 27.3506 46.788C27.6786 46.604 27.9346 46.344 28.1186 46.008C28.3106 45.664 28.4066 45.268 28.4066 44.82C28.4066 44.364 28.3106 43.972 28.1186 43.644C27.9346 43.308 27.6786 43.048 27.3506 42.864C27.0306 42.68 26.6666 42.588 26.2586 42.588C25.8586 42.588 25.4946 42.68 25.1666 42.864C24.8466 43.048 24.5906 43.308 24.3986 43.644C24.2146 43.972 24.1226 44.364 24.1226 44.82C24.1226 45.268 24.2146 45.664 24.3986 46.008C24.5906 46.344 24.8466 46.604 25.1666 46.788C25.4946 46.972 25.8586 47.064 26.2586 47.064ZM40.1183 41.58C40.6303 41.58 41.0823 41.68 41.4743 41.88C41.8663 42.08 42.1703 42.384 42.3863 42.792C42.6103 43.2 42.7223 43.716 42.7223 44.34V48H41.5703V44.472C41.5703 43.856 41.4263 43.392 41.1383 43.08C40.8503 42.768 40.4463 42.612 39.9263 42.612C39.5423 42.612 39.2063 42.692 38.9183 42.852C38.6303 43.012 38.4063 43.248 38.2463 43.56C38.0943 43.872 38.0183 44.26 38.0183 44.724V48H36.8663V44.472C36.8663 43.856 36.7223 43.392 36.4343 43.08C36.1543 42.768 35.7503 42.612 35.2223 42.612C34.8463 42.612 34.5143 42.692 34.2263 42.852C33.9383 43.012 33.7143 43.248 33.5543 43.56C33.3943 43.872 33.3143 44.26 33.3143 44.724V48H32.1623V41.64H33.2663V43.332L33.0863 42.9C33.2863 42.484 33.5943 42.16 34.0103 41.928C34.4263 41.696 34.9103 41.58 35.4623 41.58C36.0703 41.58 36.5943 41.732 37.0343 42.036C37.4743 42.332 37.7623 42.784 37.8983 43.392L37.4303 43.2C37.6223 42.712 37.9583 42.32 38.4383 42.024C38.9183 41.728 39.4783 41.58 40.1183 41.58Z" fill="#77838F"/>
<path d="M15.992 115V107.08L16.508 107.644H14.096V106.6H17.18V115H15.992ZM19.8854 115V114.184L23.3054 110.884C23.6094 110.596 23.8334 110.344 23.9774 110.128C24.1294 109.904 24.2294 109.7 24.2774 109.516C24.3334 109.324 24.3614 109.14 24.3614 108.964C24.3614 108.532 24.2094 108.192 23.9054 107.944C23.6014 107.696 23.1574 107.572 22.5734 107.572C22.1254 107.572 21.7214 107.648 21.3614 107.8C21.0014 107.944 20.6894 108.172 20.4254 108.484L19.6094 107.776C19.9294 107.368 20.3574 107.056 20.8934 106.84C21.4374 106.616 22.0334 106.504 22.6814 106.504C23.2654 106.504 23.7734 106.6 24.2054 106.792C24.6374 106.976 24.9694 107.244 25.2014 107.596C25.4414 107.948 25.5614 108.364 25.5614 108.844C25.5614 109.116 25.5254 109.384 25.4534 109.648C25.3814 109.912 25.2454 110.192 25.0454 110.488C24.8454 110.784 24.5574 111.116 24.1814 111.484L21.1334 114.424L20.8454 113.956H25.9214V115H19.8854ZM31.796 115.072C31.268 115.072 30.784 114.952 30.344 114.712C29.912 114.464 29.564 114.1 29.3 113.62C29.044 113.14 28.916 112.54 28.916 111.82C28.916 111.1 29.04 110.5 29.288 110.02C29.544 109.54 29.888 109.18 30.32 108.94C30.76 108.7 31.252 108.58 31.796 108.58C32.42 108.58 32.972 108.716 33.452 108.988C33.932 109.26 34.312 109.64 34.592 110.128C34.872 110.608 35.012 111.172 35.012 111.82C35.012 112.468 34.872 113.036 34.592 113.524C34.312 114.012 33.932 114.392 33.452 114.664C32.972 114.936 32.42 115.072 31.796 115.072ZM28.424 117.328V108.64H29.528V110.356L29.456 111.832L29.576 113.308V117.328H28.424ZM31.7 114.064C32.108 114.064 32.472 113.972 32.792 113.788C33.12 113.604 33.376 113.344 33.56 113.008C33.752 112.664 33.848 112.268 33.848 111.82C33.848 111.364 33.752 110.972 33.56 110.644C33.376 110.308 33.12 110.048 32.792 109.864C32.472 109.68 32.108 109.588 31.7 109.588C31.3 109.588 30.936 109.68 30.608 109.864C30.288 110.048 30.032 110.308 29.84 110.644C29.656 110.972 29.564 111.364 29.564 111.82C29.564 112.268 29.656 112.664 29.84 113.008C30.032 113.344 30.288 113.604 30.608 113.788C30.936 113.972 31.3 114.064 31.7 114.064ZM45.5597 108.58C46.0717 108.58 46.5237 108.68 46.9157 108.88C47.3077 109.08 47.6117 109.384 47.8277 109.792C48.0517 110.2 48.1637 110.716 48.1637 111.34V115H47.0117V111.472C47.0117 110.856 46.8677 110.392 46.5797 110.08C46.2917 109.768 45.8877 109.612 45.3677 109.612C44.9837 109.612 44.6477 109.692 44.3597 109.852C44.0717 110.012 43.8477 110.248 43.6877 110.56C43.5357 110.872 43.4597 111.26 43.4597 111.724V115H42.3077V111.472C42.3077 110.856 42.1637 110.392 41.8757 110.08C41.5957 109.768 41.1917 109.612 40.6637 109.612C40.2877 109.612 39.9557 109.692 39.6677 109.852C39.3797 110.012 39.1557 110.248 38.9957 110.56C38.8357 110.872 38.7557 111.26 38.7557 111.724V115H37.6037V108.64H38.7077V110.332L38.5277 109.9C38.7277 109.484 39.0357 109.16 39.4517 108.928C39.8677 108.696 40.3517 108.58 40.9037 108.58C41.5117 108.58 42.0357 108.732 42.4757 109.036C42.9157 109.332 43.2037 109.784 43.3397 110.392L42.8717 110.2C43.0637 109.712 43.3997 109.32 43.8797 109.024C44.3597 108.728 44.9197 108.58 45.5597 108.58Z" fill="#77838F"/>
<path d="M17.3 173.504C18.06 173.504 18.7 173.668 19.22 173.996C19.748 174.324 20.148 174.8 20.42 175.424C20.692 176.04 20.828 176.796 20.828 177.692C20.828 178.644 20.66 179.448 20.324 180.104C19.988 180.76 19.524 181.256 18.932 181.592C18.34 181.928 17.648 182.096 16.856 182.096C16.464 182.096 16.084 182.056 15.716 181.976C15.356 181.896 15.04 181.772 14.768 181.604L15.224 180.668C15.448 180.812 15.696 180.916 15.968 180.98C16.248 181.036 16.54 181.064 16.844 181.064C17.692 181.064 18.368 180.8 18.872 180.272C19.376 179.736 19.628 178.944 19.628 177.896C19.628 177.728 19.62 177.528 19.604 177.296C19.588 177.064 19.552 176.836 19.496 176.612L19.892 177.02C19.78 177.388 19.592 177.7 19.328 177.956C19.072 178.204 18.76 178.392 18.392 178.52C18.032 178.64 17.636 178.7 17.204 178.7C16.652 178.7 16.16 178.596 15.728 178.388C15.296 178.18 14.956 177.888 14.708 177.512C14.46 177.128 14.336 176.676 14.336 176.156C14.336 175.612 14.464 175.144 14.72 174.752C14.984 174.352 15.34 174.044 15.788 173.828C16.244 173.612 16.748 173.504 17.3 173.504ZM17.348 174.476C16.988 174.476 16.668 174.544 16.388 174.68C16.108 174.816 15.888 175.004 15.728 175.244C15.576 175.484 15.5 175.772 15.5 176.108C15.5 176.604 15.672 177 16.016 177.296C16.36 177.584 16.824 177.728 17.408 177.728C17.792 177.728 18.128 177.656 18.416 177.512C18.712 177.368 18.94 177.172 19.1 176.924C19.268 176.676 19.352 176.4 19.352 176.096C19.352 175.8 19.276 175.532 19.124 175.292C18.972 175.052 18.748 174.856 18.452 174.704C18.156 174.552 17.788 174.476 17.348 174.476ZM27.4463 182V180.656L27.3863 180.404V178.112C27.3863 177.624 27.2423 177.248 26.9543 176.984C26.6743 176.712 26.2503 176.576 25.6823 176.576C25.3063 176.576 24.9383 176.64 24.5783 176.768C24.2183 176.888 23.9143 177.052 23.6663 177.26L23.1863 176.396C23.5143 176.132 23.9063 175.932 24.3623 175.796C24.8263 175.652 25.3103 175.58 25.8143 175.58C26.6863 175.58 27.3583 175.792 27.8303 176.216C28.3023 176.64 28.5383 177.288 28.5383 178.16V182H27.4463ZM25.3583 182.072C24.8863 182.072 24.4703 181.992 24.1103 181.832C23.7583 181.672 23.4863 181.452 23.2943 181.172C23.1023 180.884 23.0063 180.56 23.0063 180.2C23.0063 179.856 23.0863 179.544 23.2463 179.264C23.4143 178.984 23.6823 178.76 24.0503 178.592C24.4263 178.424 24.9303 178.34 25.5623 178.34H27.5783V179.168H25.6103C25.0343 179.168 24.6463 179.264 24.4463 179.456C24.2463 179.648 24.1463 179.88 24.1463 180.152C24.1463 180.464 24.2703 180.716 24.5183 180.908C24.7663 181.092 25.1103 181.184 25.5503 181.184C25.9823 181.184 26.3583 181.088 26.6783 180.896C27.0063 180.704 27.2423 180.424 27.3863 180.056L27.6143 180.848C27.4623 181.224 27.1943 181.524 26.8103 181.748C26.4263 181.964 25.9423 182.072 25.3583 182.072ZM39.6261 175.58C40.1381 175.58 40.5901 175.68 40.9821 175.88C41.3741 176.08 41.6781 176.384 41.8941 176.792C42.1181 177.2 42.2301 177.716 42.2301 178.34V182H41.0781V178.472C41.0781 177.856 40.9341 177.392 40.6461 177.08C40.3581 176.768 39.9541 176.612 39.4341 176.612C39.0501 176.612 38.7141 176.692 38.4261 176.852C38.1381 177.012 37.9141 177.248 37.7541 177.56C37.6021 177.872 37.5261 178.26 37.5261 178.724V182H36.3741V178.472C36.3741 177.856 36.2301 177.392 35.9421 177.08C35.6621 176.768 35.2581 176.612 34.7301 176.612C34.3541 176.612 34.0221 176.692 33.7341 176.852C33.4461 177.012 33.2221 177.248 33.0621 177.56C32.9021 177.872 32.8221 178.26 32.8221 178.724V182H31.6701V175.64H32.7741V177.332L32.5941 176.9C32.7941 176.484 33.1021 176.16 33.5181 175.928C33.9341 175.696 34.4181 175.58 34.9701 175.58C35.5781 175.58 36.1021 175.732 36.5421 176.036C36.9821 176.332 37.2701 176.784 37.4061 177.392L36.9381 177.2C37.1301 176.712 37.4661 176.32 37.9461 176.024C38.4261 175.728 38.9861 175.58 39.6261 175.58Z" fill="#77838F"/>
</g>
<path d="M63 44.5H372" stroke="#F0F0F0"/>
<path d="M62 77.5H371" stroke="#F0F0F0"/>
<path d="M63 111.5H372" stroke="#F0F0F0"/>
<path d="M63 144.5H372" stroke="#F0F0F0"/>
<path d="M63 178.5H372" stroke="#F0F0F0"/>
<g clip-path="url(#clip1_306_4981)">
<rect x="84.5385" y="14" width="11.9231" height="64" rx="5.96154" fill="#72C2B7"/>
<rect x="84.5385" y="84" width="11.9231" height="34" rx="5.96154" fill="#A9BCCC"/>
<rect x="84.5385" y="124" width="11.9231" height="63" rx="5.96154" fill="#74ABFF"/>
<path d="M78.4618 209L80.1418 200.6H80.3818L78.7498 208.772H83.7538L83.7058 209H78.4618ZM88.6095 209.036C88.0415 209.036 87.5855 208.928 87.2415 208.712C86.9055 208.488 86.6775 208.184 86.5575 207.8C86.4455 207.408 86.4375 206.96 86.5335 206.456L87.2655 202.796H87.5055L86.7735 206.456C86.6295 207.184 86.7135 207.76 87.0255 208.184C87.3375 208.6 87.8735 208.808 88.6335 208.808C89.4175 208.808 90.0695 208.592 90.5895 208.16C91.1095 207.72 91.4535 207.08 91.6215 206.24L92.3055 202.796H92.5455L91.3095 209H91.0695L91.4295 207.2L91.5495 207.14C91.2535 207.796 90.8495 208.276 90.3375 208.58C89.8335 208.884 89.2575 209.036 88.6095 209.036ZM99.0183 202.76C99.5943 202.76 100.054 202.872 100.398 203.096C100.742 203.312 100.974 203.616 101.094 204.008C101.214 204.392 101.222 204.836 101.118 205.34L100.386 209H100.146L100.878 205.34C101.022 204.612 100.934 204.04 100.614 203.624C100.302 203.2 99.7623 202.988 98.9943 202.988C98.2103 202.988 97.5543 203.208 97.0263 203.648C96.4983 204.08 96.1503 204.716 95.9823 205.556L95.2983 209H95.0583L96.2943 202.796H96.5343L96.1743 204.596L96.0543 204.656C96.3503 203.992 96.7543 203.512 97.2663 203.216C97.7783 202.912 98.3623 202.76 99.0183 202.76Z" fill="#222426"/>
</g>
<g clip-path="url(#clip2_306_4981)">
<rect x="148.28" y="14" width="11.6" height="55" rx="5.8" fill="#72C2B7"/>
<rect x="148.28" y="75" width="11.6" height="51" rx="5.8" fill="#A9BCCC"/>
<rect x="148.28" y="132" width="11.6" height="55" rx="5.8" fill="#84BAF5"/>
<path d="M141.413 209L143.093 200.6H143.297L145.961 207.584L145.853 207.548L151.145 200.6H151.373L149.693 209H149.453L151.061 200.948L151.169 200.972L145.937 207.812H145.793L143.165 200.936L143.261 200.948L141.653 209H141.413ZM156.142 209.036C155.606 209.036 155.138 208.936 154.738 208.736C154.346 208.528 154.042 208.236 153.826 207.86C153.61 207.476 153.502 207.028 153.502 206.516C153.502 205.98 153.586 205.484 153.754 205.028C153.93 204.572 154.174 204.176 154.486 203.84C154.798 203.496 155.166 203.232 155.59 203.048C156.022 202.856 156.494 202.76 157.006 202.76C157.558 202.76 158.026 202.86 158.41 203.06C158.794 203.26 159.086 203.548 159.286 203.924C159.494 204.292 159.598 204.736 159.598 205.256C159.606 205.968 159.462 206.612 159.166 207.188C158.878 207.756 158.474 208.208 157.954 208.544C157.434 208.872 156.83 209.036 156.142 209.036ZM156.178 208.808C156.802 208.808 157.354 208.656 157.834 208.352C158.322 208.048 158.706 207.632 158.986 207.104C159.266 206.568 159.406 205.964 159.406 205.292C159.406 204.556 159.19 203.988 158.758 203.588C158.334 203.188 157.738 202.988 156.97 202.988C156.354 202.988 155.802 203.144 155.314 203.456C154.826 203.76 154.442 204.176 154.162 204.704C153.882 205.232 153.742 205.832 153.742 206.504C153.742 207.232 153.954 207.8 154.378 208.208C154.81 208.608 155.41 208.808 156.178 208.808ZM158.734 209L159.166 206.84L159.478 206L159.514 205.076L159.97 202.796H160.21L158.974 209H158.734ZM162.721 209L163.957 202.796H164.197L163.813 204.716L163.753 204.656C164.009 204.064 164.373 203.6 164.845 203.264C165.317 202.928 165.917 202.76 166.645 202.76L166.597 203C166.581 203 166.561 203 166.537 203C166.521 203 166.505 203 166.489 203C165.729 203 165.105 203.236 164.617 203.708C164.129 204.172 163.793 204.856 163.609 205.76L162.961 209H162.721Z" fill="#222426"/>
</g>
<g clip-path="url(#clip3_306_4981)">
<rect x="212.667" y="14" width="11.8519" height="63" rx="5.92593" fill="#72C2B7"/>
<rect x="212.667" y="83" width="11.8519" height="51" rx="5.92593" fill="#A9BCCC"/>
<rect x="212.667" y="140" width="11.8519" height="47" rx="5.92593" fill="#74ABFF"/>
<path d="M207.795 209L209.475 200.6H209.679L212.343 207.584L212.235 207.548L217.527 200.6H217.755L216.075 209H215.835L217.443 200.948L217.551 200.972L212.319 207.812H212.175L209.547 200.936L209.643 200.948L208.035 209H207.795ZM220.052 209L221.288 202.796H221.528L220.292 209H220.052ZM221.792 201.08C221.712 201.08 221.644 201.052 221.588 200.996C221.532 200.94 221.504 200.872 221.504 200.792C221.504 200.704 221.536 200.628 221.6 200.564C221.672 200.492 221.752 200.456 221.84 200.456C221.92 200.456 221.988 200.484 222.044 200.54C222.1 200.596 222.128 200.664 222.128 200.744C222.128 200.832 222.092 200.912 222.02 200.984C221.956 201.048 221.88 201.08 221.792 201.08ZM226.632 209.036C226.064 209.036 225.572 208.936 225.156 208.736C224.748 208.536 224.436 208.248 224.22 207.872C224.004 207.488 223.896 207.024 223.896 206.48C223.896 205.776 224.04 205.144 224.328 204.584C224.616 204.024 225.008 203.58 225.504 203.252C226.008 202.924 226.576 202.76 227.208 202.76C227.736 202.76 228.188 202.86 228.564 203.06C228.94 203.26 229.228 203.548 229.428 203.924C229.636 204.3 229.74 204.752 229.74 205.28C229.74 205.384 229.732 205.492 229.716 205.604C229.708 205.708 229.696 205.804 229.68 205.892H224.088L224.136 205.664H229.572L229.476 205.796C229.572 205.188 229.532 204.676 229.356 204.26C229.18 203.844 228.904 203.528 228.528 203.312C228.16 203.096 227.72 202.988 227.208 202.988C226.624 202.988 226.096 203.14 225.624 203.444C225.16 203.748 224.792 204.164 224.52 204.692C224.256 205.212 224.124 205.808 224.124 206.48C224.124 207.232 224.34 207.808 224.772 208.208C225.204 208.608 225.828 208.808 226.644 208.808C227.116 208.808 227.548 208.728 227.94 208.568C228.332 208.4 228.652 208.172 228.9 207.884L229.044 208.04C228.796 208.336 228.456 208.576 228.024 208.76C227.6 208.944 227.136 209.036 226.632 209.036Z" fill="#222426"/>
</g>
<g clip-path="url(#clip4_306_4981)">
<rect x="289" y="14" width="10" height="49" rx="5" fill="#72C2B7"/>
<rect x="289" y="69" width="10" height="47" rx="5" fill="#A9BCCC"/>
<rect x="289" y="122" width="10" height="65" rx="5" fill="#74ABFF"/>
<path d="M284.767 209.036C284.295 209.036 283.879 208.928 283.519 208.712C283.167 208.488 282.915 208.2 282.763 207.848L282.979 207.728C283.131 208.056 283.363 208.32 283.675 208.52C283.987 208.712 284.363 208.808 284.803 208.808C285.363 208.808 285.815 208.648 286.159 208.328C286.511 208.008 286.767 207.448 286.927 206.648L288.091 200.828H284.947L284.995 200.6H288.379L287.155 206.72C287.043 207.28 286.879 207.732 286.663 208.076C286.455 208.412 286.191 208.656 285.871 208.808C285.559 208.96 285.191 209.036 284.767 209.036ZM293.118 209.036C292.55 209.036 292.094 208.928 291.75 208.712C291.414 208.488 291.186 208.184 291.066 207.8C290.954 207.408 290.946 206.96 291.042 206.456L291.774 202.796H292.014L291.282 206.456C291.138 207.184 291.222 207.76 291.534 208.184C291.846 208.6 292.382 208.808 293.142 208.808C293.926 208.808 294.578 208.592 295.098 208.16C295.618 207.72 295.962 207.08 296.13 206.24L296.814 202.796H297.054L295.818 209H295.578L295.938 207.2L296.058 207.14C295.762 207.796 295.358 208.276 294.846 208.58C294.342 208.884 293.766 209.036 293.118 209.036ZM302.147 209.036C301.579 209.036 301.087 208.936 300.671 208.736C300.263 208.536 299.951 208.248 299.735 207.872C299.519 207.488 299.411 207.024 299.411 206.48C299.411 205.776 299.555 205.144 299.843 204.584C300.131 204.024 300.523 203.58 301.019 203.252C301.523 202.924 302.091 202.76 302.723 202.76C303.251 202.76 303.703 202.86 304.079 203.06C304.455 203.26 304.743 203.548 304.943 203.924C305.151 204.3 305.255 204.752 305.255 205.28C305.255 205.384 305.247 205.492 305.231 205.604C305.223 205.708 305.211 205.804 305.195 205.892H299.603L299.651 205.664H305.087L304.991 205.796C305.087 205.188 305.047 204.676 304.871 204.26C304.695 203.844 304.419 203.528 304.043 203.312C303.675 203.096 303.235 202.988 302.723 202.988C302.139 202.988 301.611 203.14 301.139 203.444C300.675 203.748 300.307 204.164 300.035 204.692C299.771 205.212 299.639 205.808 299.639 206.48C299.639 207.232 299.855 207.808 300.287 208.208C300.719 208.608 301.343 208.808 302.159 208.808C302.631 208.808 303.063 208.728 303.455 208.568C303.847 208.4 304.167 208.172 304.415 207.884L304.559 208.04C304.311 208.336 303.971 208.576 303.539 208.76C303.115 208.944 302.651 209.036 302.147 209.036Z" fill="#222426"/>
</g>
<g clip-path="url(#clip5_306_4981)">
<rect x="350.5" y="14" width="10" height="70" rx="5" fill="#72C2B7"/>
<rect x="350.5" y="90" width="10" height="51" rx="5" fill="#A9BCCC"/>
<rect x="350.5" y="147" width="10" height="40" rx="5" fill="#74ABFF"/>
<path d="M349.376 209L347.276 200.6H347.528L349.568 208.796H349.46L354.788 200.6H355.076L349.616 209H349.376ZM355.59 209L356.826 202.796H357.066L355.83 209H355.59ZM357.33 201.08C357.25 201.08 357.182 201.052 357.126 200.996C357.07 200.94 357.042 200.872 357.042 200.792C357.042 200.704 357.074 200.628 357.138 200.564C357.21 200.492 357.29 200.456 357.378 200.456C357.458 200.456 357.526 200.484 357.582 200.54C357.638 200.596 357.666 200.664 357.666 200.744C357.666 200.832 357.63 200.912 357.558 200.984C357.494 201.048 357.418 201.08 357.33 201.08ZM362.17 209.036C361.602 209.036 361.11 208.936 360.694 208.736C360.286 208.536 359.974 208.248 359.758 207.872C359.542 207.488 359.434 207.024 359.434 206.48C359.434 205.776 359.578 205.144 359.866 204.584C360.154 204.024 360.546 203.58 361.042 203.252C361.546 202.924 362.114 202.76 362.746 202.76C363.274 202.76 363.726 202.86 364.102 203.06C364.478 203.26 364.766 203.548 364.966 203.924C365.174 204.3 365.278 204.752 365.278 205.28C365.278 205.384 365.27 205.492 365.254 205.604C365.246 205.708 365.234 205.804 365.218 205.892H359.626L359.674 205.664H365.11L365.014 205.796C365.11 205.188 365.07 204.676 364.894 204.26C364.718 203.844 364.442 203.528 364.066 203.312C363.698 203.096 363.258 202.988 362.746 202.988C362.162 202.988 361.634 203.14 361.162 203.444C360.698 203.748 360.33 204.164 360.058 204.692C359.794 205.212 359.662 205.808 359.662 206.48C359.662 207.232 359.878 207.808 360.31 208.208C360.742 208.608 361.366 208.808 362.182 208.808C362.654 208.808 363.086 208.728 363.478 208.568C363.87 208.4 364.19 208.172 364.438 207.884L364.582 208.04C364.334 208.336 363.994 208.576 363.562 208.76C363.138 208.944 362.674 209.036 362.17 209.036Z" fill="#222426"/>
</g>
<defs>
<clipPath id="clip0_306_4981">
<rect width="49" height="148" fill="white" transform="translate(14 36)"/>
</clipPath>
<clipPath id="clip1_306_4981">
<rect width="31" height="197" fill="white" transform="translate(75 14)"/>
</clipPath>
<clipPath id="clip2_306_4981">
<rect width="29" height="197" fill="white" transform="translate(139 14)"/>
</clipPath>
<clipPath id="clip3_306_4981">
<rect width="32" height="197" fill="white" transform="translate(202 14)"/>
</clipPath>
<clipPath id="clip4_306_4981">
<rect width="28" height="197" fill="white" transform="translate(280 14)"/>
</clipPath>
<clipPath id="clip5_306_4981">
<rect width="33" height="197" fill="white" transform="translate(339 14)"/>
</clipPath>
</defs>
</svg>
