<svg width="234" height="234" viewBox="0 0 234 234" fill="none" xmlns="http://www.w3.org/2000/svg">
<ellipse cx="28.2031" cy="28.5" rx="28.2031" ry="28.5" transform="matrix(1 0 0 -1 88.2214 144.222)" stroke="#F2F2F2" stroke-width="8"/>
<path d="M101.72 88.023C108.017 84.6128 115.229 83.3136 122.235 84.3273C129.242 85.3409 135.652 88.6106 140.468 93.6285C145.284 98.6463 148.238 105.131 148.87 112.076C149.502 119.021 147.776 126.036 143.962 132.033C140.148 138.029 134.459 142.671 127.777 145.237C121.096 147.803 113.798 148.149 107.016 146.222C100.233 144.295 94.3472 140.202 90.2717 134.58C86.1962 128.958 84.1595 122.121 84.4779 115.131L91.8955 115.267C91.6504 120.648 93.2186 125.913 96.3565 130.241C99.4944 134.57 104.026 137.721 109.248 139.205C114.47 140.689 120.09 140.422 125.234 138.447C130.378 136.471 134.759 132.897 137.696 128.28C140.632 123.663 141.961 118.262 141.474 112.915C140.987 107.568 138.713 102.574 135.005 98.711C131.297 94.8475 126.362 92.33 120.967 91.5495C115.572 90.7691 110.019 91.7694 105.171 94.3951L101.72 88.023Z" fill="#E0652C"/>
<circle cx="50.5" cy="50.5" r="46.5" transform="matrix(1 0 0 -1 66.2215 166.222)" stroke="#F2F2F2" stroke-width="8"/>
<path d="M92.0467 72.1602C101.209 67.0291 111.828 65.0675 122.338 66.5644C132.849 68.0614 142.694 72.9377 150.424 80.4746C158.153 88.0115 163.358 97.8103 165.27 108.427C167.183 119.043 165.702 129.915 161.046 139.441C156.391 148.966 148.806 156.641 139.411 161.334C130.016 166.027 119.307 167.49 108.863 165.506C98.419 163.523 88.7923 158.199 81.4019 150.319C74.0115 142.439 69.2484 132.42 67.8146 121.738L74.5151 120.982C75.7524 130.201 79.8629 138.847 86.2408 145.648C92.6187 152.448 100.927 157.043 109.94 158.754C118.953 160.466 128.195 159.203 136.303 155.153C144.411 151.103 150.956 144.48 154.974 136.259C158.992 128.039 160.269 118.656 158.619 109.495C156.968 100.333 152.477 91.8764 145.806 85.3721C139.136 78.8677 130.639 74.6595 121.569 73.3676C112.499 72.0758 103.334 73.7687 95.4272 78.1968L92.0467 72.1602Z" fill="#D2CEC5"/>
<ellipse cx="70.5" cy="70.5" rx="70.5" ry="70.5" transform="matrix(-0.573521 -0.819191 -0.819191 0.573521 214.908 133.041)" stroke="#F2F2F2" stroke-width="8"/>
<path d="M74.5677 55.5111C88.4977 45.7586 105.378 41.1379 122.333 42.4362C139.288 43.7345 155.269 50.8716 167.551 62.6313C179.834 74.391 187.659 90.0458 189.694 106.928C191.728 123.811 187.846 140.876 178.708 155.217C169.571 169.558 155.743 180.287 139.582 185.576C123.421 190.865 105.926 190.387 90.0777 184.222C74.2297 178.058 61.0093 166.59 52.6691 151.771C44.3289 136.952 41.385 119.7 44.339 102.954L51.5601 104.227C48.9009 119.303 51.5511 134.834 59.0592 148.174C66.5673 161.515 78.4688 171.839 92.7358 177.389C107.003 182.938 122.752 183.368 137.301 178.607C151.85 173.846 164.298 164.187 172.524 151.277C180.75 138.367 184.245 123.004 182.414 107.806C180.582 92.6073 173.538 78.5143 162.48 67.9278C151.423 57.3412 137.037 50.9162 121.773 49.7474C106.51 48.5786 91.3134 52.7384 78.7731 61.5179L74.5677 55.5111Z" fill="#72C2B7"/>
<ellipse cx="90.5" cy="90.5" rx="90.5" ry="90.5" transform="matrix(1 0 0 -1 26.2215 206.222)" stroke="#F2F2F2" stroke-width="8"/>
<path d="M90.9053 25.8161C110.396 20.2809 131.15 21.1568 150.105 28.3146C169.061 35.4724 185.213 48.5331 196.181 65.57C207.148 82.6068 212.349 102.717 211.017 122.935C209.685 143.153 201.889 162.407 188.781 177.858C175.673 193.308 157.946 204.136 138.215 208.745C118.485 213.353 97.7954 211.498 79.1994 203.453C60.6033 195.408 45.0855 181.599 34.935 164.063C24.7845 146.527 20.539 126.193 22.8247 106.061L30.6511 106.949C28.5559 125.404 32.4475 144.043 41.752 160.117C51.0564 176.191 65.2808 188.849 82.3269 196.224C99.3729 203.598 118.338 205.299 136.424 201.074C154.51 196.85 170.759 186.924 182.775 172.762C194.791 158.599 201.936 140.95 203.157 122.417C204.379 103.885 199.611 85.4502 189.558 69.8335C179.505 54.2167 164.698 42.2446 147.323 35.6834C129.948 29.1222 110.923 28.3193 93.0571 33.3931L90.9053 25.8161Z" fill="#E0652C"/>
</svg>
