<svg width="144" height="147" viewBox="0 0 144 147" fill="none" xmlns="http://www.w3.org/2000/svg">
<path opacity="0.7" d="M117.937 73.0348C117.798 98.9294 97.0847 120.034 71.6736 120.174C46.2626 120.313 25.776 99.4348 25.9156 73.5403C26.0552 47.6457 46.7681 26.5408 72.1791 26.4013C97.5902 26.2617 118.077 47.1402 117.937 73.0348ZM32.8172 73.5023C32.6986 95.5127 50.1122 113.259 71.7116 113.141C93.3109 113.022 110.917 95.0831 111.036 73.0727C111.154 51.0623 93.7406 33.3156 72.1412 33.4342C50.5418 33.5528 32.9359 51.492 32.8172 73.5023Z" fill="#EFEFFF"/>
<path d="M71.6169 130.657C71.6079 132.325 70.2476 133.692 68.5827 133.615C56.3488 133.047 44.6016 128.622 34.9819 120.914C24.5736 112.573 17.2622 100.874 14.2259 87.7016C11.1895 74.5289 12.605 60.6497 18.2443 48.3005C23.8836 35.9513 33.4183 25.8513 45.3119 19.628C57.2056 13.4047 70.7655 11.4204 83.8068 13.995C96.8481 16.5696 108.611 23.5531 117.201 33.8202C125.79 44.0874 130.705 57.0401 131.155 70.5914C131.571 83.1233 128.145 95.4922 121.392 105.995C120.486 107.405 118.583 107.712 117.248 106.727C115.946 105.766 115.673 103.936 116.552 102.558C122.559 93.1411 125.604 82.0736 125.232 70.861C124.827 58.6648 120.404 47.0074 112.673 37.767C104.943 28.5266 94.3559 22.2414 82.6187 19.9243C70.8816 17.6071 58.6776 19.3929 47.9734 24.994C37.2691 30.595 28.6879 39.685 23.6125 50.7992C18.5371 61.9135 17.2632 74.4048 19.9959 86.2602C22.7286 98.1157 29.3089 108.645 38.6764 116.151C47.255 123.025 57.7137 126.998 68.6156 127.567C70.2799 127.654 71.6259 128.99 71.6169 130.657Z" fill="#72C2B7"/>
<path d="M71.5533 142.538C71.5424 144.551 69.9006 146.201 67.8909 146.108C56.9183 145.598 46.2185 142.516 36.6309 137.08C25.9849 131.044 17.0666 122.309 10.7288 111.71C4.3911 101.111 0.846021 89.0021 0.432686 76.5421C0.01935 64.0821 2.75159 51.6876 8.36805 40.5442C13.9845 29.4008 22.2973 19.8813 32.5113 12.8962C42.7254 5.91105 54.4989 1.69402 66.7058 0.648439C78.9127 -0.397142 91.1447 1.76371 102.232 6.92429C112.262 11.5931 121.052 18.5759 127.923 27.3069C129.13 28.8413 128.76 31.0662 127.176 32.2429C125.552 33.4498 123.275 33.0932 122.025 31.5287C115.886 23.8464 108.084 17.6953 99.2011 13.5606C89.2229 8.9161 78.2141 6.97134 67.2279 7.91236C56.2417 8.85338 45.6455 12.6487 36.4529 18.9353C27.2603 25.2219 19.7787 33.7895 14.7239 43.8185C9.66909 53.8476 7.21008 65.0026 7.58208 76.2166C7.95408 87.4306 11.1447 98.3285 16.8486 107.868C22.5526 117.407 30.5791 125.269 40.1605 130.701C48.6833 135.533 58.1827 138.298 67.9306 138.808C69.9396 138.913 71.5641 140.525 71.5533 142.538Z" fill="#FDE401"/>
<path d="M80 62.9999H64C62.9 62.9999 62 63.8999 62 64.9999V76.9999C62 78.0999 62.9 78.9999 64 78.9999H80C81.1 78.9999 82 78.0999 82 76.9999V64.9999C82 63.8999 81.1 62.9999 80 62.9999ZM80 76.9999H64V64.9999H80V76.9999ZM64 58.9999H80V60.9999H64V58.9999ZM64 80.9999H80V82.9999H64V80.9999ZM72 70.9999C73.38 70.9999 74.5 69.8799 74.5 68.4999C74.5 67.1199 73.38 65.9999 72 65.9999C70.62 65.9999 69.5 67.1199 69.5 68.4999C69.5 69.8799 70.62 70.9999 72 70.9999ZM72 67.4999C72.55 67.4999 73 67.9499 73 68.4999C73 69.0499 72.55 69.4999 72 69.4999C71.45 69.4999 71 69.0499 71 68.4999C71 67.9499 71.45 67.4999 72 67.4999ZM77 74.9899C77 72.8999 73.69 71.9999 72 71.9999C70.31 71.9999 67 72.8999 67 74.9899V75.9999H77V74.9899ZM68.81 74.4999C69.42 73.9799 70.84 73.4999 72 73.4999C73.17 73.4999 74.59 73.9799 75.2 74.4999H68.81Z" fill="#72C2B7"/>
</svg>
